<svg width="52" height="33" viewBox="0 0 52 33" fill="none" xmlns="http://www.w3.org/2000/svg">
<path d="M37.9231 1V18.6222C40.2308 21.804 46.0769 26.699 51 20.825V1H37.9231Z" fill="#FE0000"/>
<path d="M19.4615 1H1C11.7692 12.0139 23.9346 24.723 34.0769 30.3703C40.2308 26.2585 39.2051 20.825 37.9231 18.6222L19.4615 1Z" fill="#FE0000"/>
<path d="M34.0769 30.3703C43.3077 35.5101 51 27.4333 51 20.825C46.0769 26.699 40.2308 21.804 37.9231 18.6222C39.2051 20.825 40.2308 26.2585 34.0769 30.3703Z" fill="#AF0001"/>
<path d="M37.9231 18.6222L19.4615 1H1C11.7692 12.0139 23.9346 24.723 34.0769 30.3703M37.9231 18.6222V1H51V20.825M37.9231 18.6222C39.2051 20.825 40.2308 26.2585 34.0769 30.3703M37.9231 18.6222C40.2308 21.804 46.0769 26.699 51 20.825M51 20.825C51 27.4333 43.3077 35.5101 34.0769 30.3703" stroke="#FE0000" stroke-width="0.0994801"/>
</svg>
