<svg width="161" height="74" viewBox="0 0 161 74" fill="none" xmlns="http://www.w3.org/2000/svg">
<g style="mix-blend-mode:hard-light">
<path d="M156.071 0C156.874 0 157.659 0.238715 158.326 0.685977C158.994 1.13324 159.514 1.76897 159.822 2.51273C160.129 3.2565 160.209 4.07491 160.052 4.86449C159.896 5.65407 159.509 6.37934 158.942 6.94859C158.374 7.51785 157.65 7.90552 156.863 8.06258C156.076 8.21964 155.259 8.13906 154.518 7.83098C153.776 7.5229 153.142 7.00117 152.696 6.3318C152.25 5.66242 152.012 4.87544 152.012 4.07039C152.012 2.99085 152.439 1.95554 153.201 1.19219C153.962 0.428839 154.994 0 156.071 0Z" fill="white"/>
<path d="M156.071 30.1824C156.874 30.1824 157.659 30.4211 158.326 30.8684C158.994 31.3156 159.514 31.9513 159.822 32.6951C160.129 33.4389 160.209 34.2573 160.052 35.0469C159.896 35.8365 159.509 36.5617 158.942 37.131C158.374 37.7003 157.65 38.0879 156.863 38.245C156.076 38.402 155.259 38.3214 154.518 38.0133C153.776 37.7053 153.142 37.1835 152.696 36.5142C152.25 35.8448 152.012 35.0579 152.012 34.2528C152.012 33.1733 152.439 32.1379 153.201 31.3746C153.962 30.6113 154.994 30.1824 156.071 30.1824Z" fill="white"/>
<path d="M156.071 60.3136C156.874 60.3136 157.659 60.5523 158.326 60.9996C158.994 61.4468 159.514 62.0826 159.822 62.8263C160.129 63.5701 160.209 64.3885 160.052 65.1781C159.896 65.9677 159.509 66.693 158.942 67.2622C158.374 67.8315 157.65 68.2191 156.863 68.3762C156.076 68.5332 155.259 68.4527 154.518 68.1446C153.776 67.8365 153.142 67.3148 152.696 66.6454C152.25 65.976 152.012 65.189 152.012 64.384C152.012 63.3045 152.439 62.2691 153.201 61.5058C153.962 60.7424 154.994 60.3136 156.071 60.3136Z" fill="white"/>
<path d="M125.664 8.19199C127.906 8.19199 129.723 6.36962 129.723 4.1216C129.723 1.87358 127.906 0.0512085 125.664 0.0512085C123.422 0.0512085 121.604 1.87358 121.604 4.1216C121.604 6.36962 123.422 8.19199 125.664 8.19199Z" fill="white"/>
<path d="M125.664 30.1823C126.468 30.1773 127.255 30.4117 127.926 30.8558C128.597 31.3 129.121 31.9339 129.432 32.6773C129.743 33.4206 129.827 34.2398 129.674 35.031C129.52 35.8223 129.135 36.55 128.569 37.1218C128.002 37.6936 127.279 38.0838 126.491 38.243C125.702 38.4021 124.885 38.323 124.142 38.0157C123.398 37.7084 122.763 37.1867 122.316 36.5168C121.869 35.8469 121.63 35.0589 121.63 34.2528C121.63 33.1776 122.054 32.1462 122.81 31.3835C123.565 30.6209 124.592 30.1891 125.664 30.1823Z" fill="white"/>
<path d="M125.664 60.3136C126.468 60.3085 127.255 60.5429 127.926 60.9871C128.597 61.4312 129.121 62.0652 129.432 62.8085C129.743 63.5518 129.827 64.371 129.674 65.1623C129.52 65.9535 129.135 66.6812 128.569 67.253C128.002 67.8248 127.279 68.215 126.491 68.3742C125.702 68.5333 124.885 68.4542 124.142 68.1469C123.398 67.8396 122.763 67.3179 122.316 66.648C121.869 65.9781 121.63 65.1901 121.63 64.3839C121.63 63.3088 122.054 62.2774 122.81 61.5148C123.565 60.7522 124.592 60.3203 125.664 60.3136Z" fill="white"/>
<path d="M95.2818 0C96.0846 0 96.8695 0.238715 97.5371 0.685977C98.2046 1.13324 98.725 1.76897 99.0322 2.51273C99.3395 3.2565 99.4198 4.07491 99.2632 4.86449C99.1065 5.65407 98.72 6.37934 98.1523 6.94859C97.5846 7.51785 96.8611 7.90552 96.0737 8.06258C95.2862 8.21964 94.4701 8.13906 93.7283 7.83098C92.9865 7.5229 92.3526 7.00117 91.9065 6.3318C91.4604 5.66242 91.2224 4.87544 91.2224 4.07039C91.2224 2.99085 91.6501 1.95554 92.4114 1.19219C93.1727 0.428839 94.2051 0 95.2818 0Z" fill="white"/>
<path d="M95.2818 30.1824C96.0846 30.1824 96.8695 30.4211 97.5371 30.8684C98.2046 31.3156 98.725 31.9513 99.0322 32.6951C99.3395 33.4389 99.4198 34.2573 99.2632 35.0469C99.1065 35.8365 98.72 36.5617 98.1523 37.131C97.5846 37.7003 96.8611 38.0879 96.0737 38.245C95.2862 38.402 94.4701 38.3214 93.7283 38.0133C92.9865 37.7053 92.3526 37.1835 91.9065 36.5142C91.4604 35.8448 91.2224 35.0579 91.2224 34.2528C91.2224 33.1733 91.6501 32.1379 92.4114 31.3746C93.1727 30.6113 94.2051 30.1824 95.2818 30.1824Z" fill="white"/>
<path d="M95.2818 60.3136C96.0846 60.3136 96.8695 60.5523 97.5371 60.9996C98.2046 61.4468 98.725 62.0826 99.0322 62.8263C99.3395 63.5701 99.4198 64.3885 99.2632 65.1781C99.1065 65.9677 98.72 66.693 98.1523 67.2622C97.5846 67.8315 96.8611 68.2191 96.0737 68.3762C95.2862 68.5332 94.4701 68.4527 93.7283 68.1446C92.9865 67.8365 92.3526 67.3148 91.9065 66.6454C91.4604 65.976 91.2224 65.189 91.2224 64.384C91.2224 63.3045 91.6501 62.2691 92.4114 61.5058C93.1727 60.7424 94.2051 60.3136 95.2818 60.3136Z" fill="white"/>
<path d="M64.8744 0C65.6773 0 66.4622 0.238715 67.1297 0.685977C67.7973 1.13324 68.3175 1.76897 68.6248 2.51273C68.932 3.2565 69.0125 4.07491 68.8559 4.86449C68.6992 5.65407 68.3125 6.37934 67.7448 6.94859C67.1771 7.51785 66.4538 7.90552 65.6664 8.06258C64.8789 8.21964 64.0627 8.13906 63.321 7.83098C62.5792 7.5229 61.9452 7.00117 61.4992 6.3318C61.0531 5.66242 60.8149 4.87544 60.8149 4.07039C60.8149 2.99085 61.2426 1.95554 62.0039 1.19219C62.7652 0.428839 63.7978 0 64.8744 0Z" fill="white"/>
<path d="M64.8744 30.1824C65.6773 30.1824 66.4622 30.4211 67.1297 30.8684C67.7973 31.3156 68.3175 31.9513 68.6248 32.6951C68.932 33.4389 69.0125 34.2573 68.8559 35.0469C68.6992 35.8365 68.3125 36.5617 67.7448 37.131C67.1771 37.7003 66.4538 38.0879 65.6664 38.245C64.8789 38.402 64.0627 38.3214 63.321 38.0133C62.5792 37.7053 61.9452 37.1835 61.4992 36.5142C61.0531 35.8448 60.8149 35.0579 60.8149 34.2528C60.8149 33.1733 61.2426 32.1379 62.0039 31.3746C62.7652 30.6113 63.7978 30.1824 64.8744 30.1824Z" fill="white"/>
<path d="M64.8744 60.3136C65.6773 60.3136 66.4622 60.5523 67.1297 60.9996C67.7973 61.4468 68.3175 62.0826 68.6248 62.8263C68.932 63.5701 69.0125 64.3885 68.8559 65.1781C68.6992 65.9677 68.3125 66.693 67.7448 67.2622C67.1771 67.8315 66.4538 68.2191 65.6664 68.3762C64.8789 68.5332 64.0627 68.4527 63.321 68.1446C62.5792 67.8365 61.9452 67.3148 61.4992 66.6454C61.0531 65.976 60.8149 65.189 60.8149 64.384C60.8149 63.3045 61.2426 62.2691 62.0039 61.5058C62.7652 60.7424 63.7978 60.3136 64.8744 60.3136Z" fill="white"/>
<path d="M34.4668 0C35.2697 0 36.0546 0.238715 36.7221 0.685977C37.3897 1.13324 37.9101 1.76897 38.2173 2.51273C38.5246 3.2565 38.6049 4.07491 38.4482 4.86449C38.2916 5.65407 37.9051 6.37934 37.3373 6.94859C36.7696 7.51785 36.0463 7.90552 35.2589 8.06258C34.4714 8.21964 33.6551 8.13906 32.9134 7.83098C32.1716 7.5229 31.5376 7.00117 31.0916 6.3318C30.6455 5.66242 30.4075 4.87544 30.4075 4.07039C30.4075 3.53586 30.5125 3.00658 30.7165 2.51273C30.9205 2.01889 31.2195 1.57016 31.5964 1.19219C31.9734 0.814216 32.4208 0.5144 32.9134 0.309844C33.4059 0.105287 33.9337 0 34.4668 0Z" fill="white"/>
<path d="M34.4668 30.1824C35.2697 30.1824 36.0546 30.4211 36.7221 30.8684C37.3897 31.3156 37.9101 31.9513 38.2173 32.6951C38.5246 33.4389 38.6049 34.2573 38.4482 35.0469C38.2916 35.8365 37.9051 36.5617 37.3373 37.131C36.7696 37.7003 36.0463 38.0879 35.2589 38.245C34.4714 38.402 33.6551 38.3214 32.9134 38.0133C32.1716 37.7053 31.5376 37.1835 31.0916 36.5142C30.6455 35.8448 30.4075 35.0579 30.4075 34.2528C30.4075 33.7183 30.5125 33.189 30.7165 32.6951C30.9205 32.2013 31.2195 31.7526 31.5964 31.3746C31.9734 30.9966 32.4208 30.6968 32.9134 30.4922C33.4059 30.2877 33.9337 30.1824 34.4668 30.1824Z" fill="white"/>
<path d="M34.4668 60.3136C35.2697 60.3136 36.0546 60.5523 36.7221 60.9996C37.3897 61.4468 37.9101 62.0826 38.2173 62.8263C38.5246 63.5701 38.6049 64.3885 38.4482 65.1781C38.2916 65.9677 37.9051 66.693 37.3373 67.2622C36.7696 67.8315 36.0463 68.2191 35.2589 68.3762C34.4714 68.5332 33.6551 68.4527 32.9134 68.1446C32.1716 67.8365 31.5376 67.3148 31.0916 66.6454C30.6455 65.976 30.4075 65.189 30.4075 64.384C30.4075 63.8495 30.5125 63.3202 30.7165 62.8263C30.9205 62.3325 31.2195 61.8838 31.5964 61.5058C31.9734 61.1278 32.4208 60.828 32.9134 60.6234C33.4059 60.4189 33.9337 60.3136 34.4668 60.3136Z" fill="white"/>
<path d="M4.0595 0C4.86238 0 5.64724 0.238715 6.31481 0.685977C6.98238 1.13324 7.50258 1.76897 7.80983 2.51273C8.11708 3.2565 8.19756 4.07491 8.04092 4.86449C7.88429 5.65407 7.49759 6.37934 6.92986 6.94859C6.36214 7.51785 5.63887 7.90552 4.85142 8.06258C4.06397 8.21964 3.2478 8.13906 2.50604 7.83098C1.76428 7.5229 1.1303 7.00117 0.684244 6.3318C0.238189 5.66242 0 4.87544 0 4.07039C0 2.99085 0.427684 1.95554 1.18897 1.19219C1.95026 0.428839 2.98287 0 4.0595 0Z" fill="white"/>
<path d="M4.0595 30.1824C4.86238 30.1824 5.64724 30.4211 6.31481 30.8684C6.98238 31.3156 7.50258 31.9513 7.80983 32.6951C8.11708 33.4389 8.19756 34.2573 8.04092 35.0469C7.88429 35.8365 7.49759 36.5617 6.92986 37.131C6.36214 37.7003 5.63887 38.0879 4.85142 38.245C4.06397 38.402 3.2478 38.3214 2.50604 38.0133C1.76428 37.7053 1.1303 37.1835 0.684244 36.5142C0.238189 35.8448 0 35.0579 0 34.2528C0 33.1733 0.427684 32.1379 1.18897 31.3746C1.95026 30.6113 2.98287 30.1824 4.0595 30.1824Z" fill="white"/>
<path d="M4.0595 60.3136C4.86238 60.3136 5.64724 60.5523 6.31481 60.9996C6.98238 61.4468 7.50258 62.0826 7.80983 62.8263C8.11708 63.5701 8.19756 64.3885 8.04092 65.1781C7.88429 65.9677 7.49759 66.693 6.92986 67.2622C6.36214 67.8315 5.63887 68.2191 4.85142 68.3762C4.06397 68.5332 3.2478 68.4527 2.50604 68.1446C1.76428 67.8365 1.1303 67.3148 0.684244 66.6454C0.238189 65.976 0 65.189 0 64.384C0 63.3045 0.427684 62.2691 1.18897 61.5058C1.95026 60.7424 2.98287 60.3136 4.0595 60.3136Z" fill="white"/>
</g>
</svg>
