<svg width="663" height="142" viewBox="0 0 663 142" fill="none" xmlns="http://www.w3.org/2000/svg">
<path d="M164.649 95.7846C160.138 95.7846 155.79 95.2615 151.605 94.2154C147.486 93.1038 144.216 91.7307 141.797 90.0961L146.897 79.1114C149.316 80.6153 152.161 81.8576 155.43 82.8384C158.765 83.7537 162.034 84.2114 165.238 84.2114C168.769 84.2114 171.253 83.7864 172.692 82.9364C174.196 82.0864 174.947 80.9095 174.947 79.4056C174.947 78.1633 174.359 77.2479 173.182 76.6595C172.071 76.0056 170.567 75.5152 168.671 75.1883C166.774 74.8614 164.682 74.5344 162.394 74.2075C160.17 73.8806 157.915 73.4556 155.626 72.9325C153.338 72.344 151.245 71.494 149.349 70.3825C147.453 69.2709 145.916 67.7671 144.74 65.8709C143.628 63.9747 143.072 61.5228 143.072 58.5151C143.072 55.1804 144.02 52.2381 145.916 49.6881C147.878 47.138 150.69 45.1438 154.351 43.7053C158.013 42.2015 162.394 41.4495 167.494 41.4495C171.09 41.4495 174.751 41.8418 178.478 42.6265C182.205 43.4111 185.311 44.5553 187.796 46.0592L182.696 56.9458C180.146 55.442 177.563 54.4285 174.947 53.9054C172.397 53.3169 169.913 53.0227 167.494 53.0227C164.094 53.0227 161.609 53.4804 160.04 54.3958C158.47 55.3112 157.686 56.4881 157.686 57.9266C157.686 59.2343 158.242 60.2151 159.353 60.8689C160.53 61.5228 162.067 62.0459 163.963 62.4382C165.859 62.8305 167.919 63.1901 170.142 63.517C172.43 63.7786 174.719 64.2036 177.007 64.792C179.296 65.3805 181.355 66.2305 183.186 67.3421C185.082 68.3882 186.619 69.8594 187.796 71.7556C188.973 73.5863 189.561 76.0056 189.561 79.0133C189.561 82.2826 188.58 85.1922 186.619 87.7422C184.657 90.2269 181.813 92.1884 178.086 93.6269C174.424 95.0654 169.946 95.7846 164.649 95.7846ZM219.107 95.7846C212.895 95.7846 208.057 94.2154 204.591 91.0769C201.126 87.873 199.393 83.1326 199.393 76.8556V30.5629H214.693V76.6595C214.693 78.8826 215.282 80.6153 216.459 81.8576C217.636 83.0345 219.238 83.623 221.265 83.623C223.684 83.623 225.744 82.9691 227.444 81.6614L231.563 92.45C229.994 93.5615 228.097 94.4115 225.874 95C223.717 95.5231 221.461 95.7846 219.107 95.7846ZM191.253 55.1804V43.4111H227.836V55.1804H191.253ZM238.68 95V42.2341H253.294V57.142L251.234 52.8266C252.804 49.0996 255.321 46.288 258.786 44.3919C262.252 42.4303 266.469 41.4495 271.438 41.4495V55.5727C270.785 55.5073 270.196 55.4747 269.673 55.4747C269.15 55.4093 268.594 55.3766 268.006 55.3766C263.821 55.3766 260.421 56.5862 257.806 59.0055C255.256 61.3593 253.981 65.0536 253.981 70.0882V95H238.68ZM304.868 95.7846C298.853 95.7846 293.557 94.6077 288.98 92.2538C284.468 89.9 280.97 86.6961 278.485 82.6422C276.001 78.5229 274.758 73.8479 274.758 68.6171C274.758 63.3209 275.968 58.6458 278.387 54.592C280.872 50.4727 284.239 47.2688 288.489 44.9803C292.739 42.6265 297.545 41.4495 302.907 41.4495C308.072 41.4495 312.715 42.5611 316.834 44.7842C321.019 46.9419 324.32 50.0804 326.74 54.1996C329.159 58.2535 330.369 63.1247 330.369 68.8132C330.369 69.4017 330.336 70.0882 330.271 70.8729C330.205 71.5921 330.14 72.2786 330.074 72.9325H287.214V64.0074H322.032L316.147 66.6555C316.147 63.9093 315.592 61.5228 314.48 59.4958C313.368 57.4689 311.832 55.8997 309.87 54.7881C307.909 53.6112 305.62 53.0227 303.005 53.0227C300.389 53.0227 298.068 53.6112 296.041 54.7881C294.08 55.8997 292.543 57.5016 291.432 59.5939C290.32 61.6209 289.764 64.0401 289.764 66.8517V69.2055C289.764 72.0825 290.386 74.6325 291.628 76.8556C292.936 79.0133 294.734 80.6806 297.022 81.8576C299.376 82.9691 302.122 83.5249 305.261 83.5249C308.072 83.5249 310.524 83.0999 312.617 82.2499C314.774 81.3999 316.736 80.1249 318.501 78.4249L326.642 87.2519C324.222 89.998 321.182 92.1231 317.52 93.6269C313.859 95.0654 309.641 95.7846 304.868 95.7846ZM364.584 95.7846C358.895 95.7846 353.828 94.6404 349.382 92.3519C344.936 89.998 341.438 86.7615 338.888 82.6422C336.403 78.5229 335.161 73.8479 335.161 68.6171C335.161 63.3209 336.403 58.6458 338.888 54.592C341.438 50.4727 344.936 47.2688 349.382 44.9803C353.828 42.6265 358.895 41.4495 364.584 41.4495C370.142 41.4495 374.98 42.6265 379.099 44.9803C383.219 47.2688 386.259 50.5708 388.221 54.8862L376.353 61.2612C374.98 58.7766 373.247 56.9458 371.155 55.7689C369.128 54.592 366.905 54.0035 364.486 54.0035C361.87 54.0035 359.517 54.592 357.424 55.7689C355.332 56.9458 353.665 58.6131 352.422 60.7709C351.245 62.9286 350.657 65.544 350.657 68.6171C350.657 71.6902 351.245 74.3056 352.422 76.4633C353.665 78.621 355.332 80.2883 357.424 81.4653C359.517 82.6422 361.87 83.2307 364.486 83.2307C366.905 83.2307 369.128 82.6749 371.155 81.5633C373.247 80.3864 374.98 78.5229 376.353 75.9729L388.221 82.446C386.259 86.6961 383.219 89.998 379.099 92.3519C374.98 94.6404 370.142 95.7846 364.584 95.7846ZM427.343 41.4495C431.528 41.4495 435.255 42.2995 438.524 43.9995C441.858 45.6342 444.474 48.1842 446.37 51.6496C448.266 55.0496 449.214 59.4305 449.214 64.792V95H433.914V67.1459C433.914 62.8959 432.966 59.7574 431.07 57.7304C429.239 55.7035 426.624 54.69 423.224 54.69C420.804 54.69 418.614 55.2131 416.653 56.2593C414.756 57.2401 413.252 58.7766 412.141 60.8689C411.095 62.9613 410.572 65.642 410.572 68.9113V95H395.272V22.2263H410.572V56.8477L407.139 52.4342C409.035 48.9034 411.749 46.19 415.279 44.2938C418.81 42.3976 422.831 41.4495 427.343 41.4495ZM493.978 95V84.7018L492.997 82.446V64.0074C492.997 60.7382 491.983 58.1881 489.956 56.3574C487.995 54.5266 484.954 53.6112 480.835 53.6112C478.024 53.6112 475.245 54.0689 472.499 54.9843C469.818 55.8343 467.529 57.0112 465.633 58.5151L460.141 47.8246C463.018 45.7976 466.483 44.2284 470.537 43.1168C474.591 42.0053 478.71 41.4495 482.895 41.4495C490.937 41.4495 497.182 43.3457 501.628 47.138C506.074 50.9304 508.297 56.8477 508.297 64.8901V95H493.978ZM477.893 95.7846C473.774 95.7846 470.243 95.0981 467.3 93.725C464.358 92.2865 462.102 90.3577 460.533 87.9384C458.964 85.5191 458.179 82.8057 458.179 79.7979C458.179 76.6595 458.931 73.9133 460.435 71.5594C462.004 69.2055 464.456 67.3748 467.791 66.0671C471.126 64.694 475.474 64.0074 480.835 64.0074H494.86V72.9325H482.503C478.906 72.9325 476.422 73.521 475.049 74.6979C473.741 75.8748 473.087 77.346 473.087 79.1114C473.087 81.073 473.839 82.6422 475.343 83.8191C476.912 84.9307 479.037 85.4865 481.718 85.4865C484.268 85.4865 486.556 84.898 488.583 83.7211C490.61 82.4787 492.081 80.6806 492.997 78.3268L495.351 85.3884C494.239 88.7884 492.212 91.3711 489.27 93.1365C486.328 94.9019 482.535 95.7846 477.893 95.7846ZM526.46 95.7846C523.844 95.7846 521.589 94.9019 519.692 93.1365C517.862 91.3057 516.946 88.9846 516.946 86.173C516.946 83.3614 517.862 81.1056 519.692 79.4056C521.589 77.6402 523.844 76.7575 526.46 76.7575C529.141 76.7575 531.396 77.6402 533.227 79.4056C535.058 81.1056 535.973 83.3614 535.973 86.173C535.973 88.9846 535.058 91.3057 533.227 93.1365C531.396 94.9019 529.141 95.7846 526.46 95.7846ZM576.06 95.7846C571.417 95.7846 567.429 94.8038 564.094 92.8423C560.759 90.8807 558.209 87.9057 556.444 83.9172C554.679 79.8633 553.796 74.7633 553.796 68.6171C553.796 62.4055 554.711 57.3054 556.542 53.3169C558.438 49.3284 561.054 46.3534 564.388 44.3919C567.723 42.4303 571.613 41.4495 576.06 41.4495C581.029 41.4495 585.475 42.5611 589.398 44.7842C593.387 47.0073 596.525 50.1458 598.814 54.1996C601.167 58.2535 602.344 63.0593 602.344 68.6171C602.344 74.1094 601.167 78.8826 598.814 82.9364C596.525 86.9903 593.387 90.1615 589.398 92.45C585.475 94.6731 581.029 95.7846 576.06 95.7846ZM544.871 95V22.2263H560.171V52.9246L559.19 68.519L559.484 84.2114V95H544.871ZM573.411 83.2307C575.961 83.2307 578.217 82.6422 580.179 81.4653C582.206 80.2883 583.808 78.621 584.985 76.4633C586.227 74.2402 586.848 71.6248 586.848 68.6171C586.848 65.544 586.227 62.9286 584.985 60.7709C583.808 58.6131 582.206 56.9458 580.179 55.7689C578.217 54.592 575.961 54.0035 573.411 54.0035C570.861 54.0035 568.573 54.592 566.546 55.7689C564.519 56.9458 562.917 58.6131 561.74 60.7709C560.563 62.9286 559.975 65.544 559.975 68.6171C559.975 71.6248 560.563 74.2402 561.74 76.4633C562.917 78.621 564.519 80.2883 566.546 81.4653C568.573 82.6422 570.861 83.2307 573.411 83.2307ZM616.348 114.812C613.602 114.812 610.888 114.387 608.208 113.537C605.527 112.687 603.336 111.51 601.636 110.006L607.227 99.1193C608.404 100.165 609.744 100.983 611.248 101.571C612.817 102.16 614.354 102.454 615.858 102.454C618.015 102.454 619.715 101.931 620.958 100.885C622.265 99.9039 623.442 98.2366 624.489 95.8827L627.235 89.4096L628.412 87.7422L647.341 42.2341H662.052L638.219 98.2366C636.519 102.487 634.558 105.821 632.335 108.241C630.177 110.66 627.758 112.36 625.077 113.341C622.462 114.321 619.552 114.812 616.348 114.812ZM625.371 97.0596L601.833 42.2341H617.623L635.866 86.3692L625.371 97.0596Z" fill="white"/>
<path d="M300.421 133.837V110.201H310.146C312.239 110.201 314.029 110.539 315.515 111.214C317.023 111.889 318.182 112.857 318.992 114.118C319.803 115.378 320.208 116.875 320.208 118.609C320.208 120.342 319.803 121.839 318.992 123.099C318.182 124.36 317.023 125.328 315.515 126.003C314.029 126.679 312.239 127.016 310.146 127.016H302.853L304.811 124.957V133.837H300.421ZM304.811 125.429L302.853 123.302H309.943C311.879 123.302 313.331 122.897 314.299 122.086C315.29 121.254 315.785 120.094 315.785 118.609C315.785 117.1 315.29 115.941 314.299 115.131C313.331 114.32 311.879 113.915 309.943 113.915H302.853L304.811 111.754V125.429ZM323.381 133.837V110.201H326.961L337.326 127.455H335.402L345.599 110.201H349.178L349.246 133.837H345.059L345.025 116.718H345.903L337.259 131.136H335.301L326.522 116.718H327.535V133.837H323.381ZM365.821 134.174C363.975 134.174 362.275 133.871 360.722 133.263C359.169 132.655 357.818 131.811 356.67 130.73C355.522 129.627 354.633 128.344 354.003 126.881C353.373 125.395 353.057 123.775 353.057 122.019C353.057 120.263 353.373 118.654 354.003 117.19C354.633 115.705 355.522 114.422 356.67 113.341C357.818 112.238 359.169 111.383 360.722 110.775C362.275 110.167 363.964 109.863 365.787 109.863C367.633 109.863 369.321 110.167 370.852 110.775C372.405 111.383 373.756 112.238 374.904 113.341C376.052 114.422 376.941 115.705 377.571 117.19C378.201 118.654 378.517 120.263 378.517 122.019C378.517 123.775 378.201 125.395 377.571 126.881C376.941 128.367 376.052 129.65 374.904 130.73C373.756 131.811 372.405 132.655 370.852 133.263C369.321 133.871 367.644 134.174 365.821 134.174ZM365.787 130.325C366.98 130.325 368.083 130.123 369.096 129.717C370.109 129.312 370.987 128.738 371.73 127.995C372.473 127.23 373.047 126.352 373.452 125.362C373.879 124.349 374.093 123.234 374.093 122.019C374.093 120.803 373.879 119.7 373.452 118.71C373.047 117.697 372.473 116.819 371.73 116.076C370.987 115.311 370.109 114.726 369.096 114.32C368.083 113.915 366.98 113.713 365.787 113.713C364.594 113.713 363.491 113.915 362.478 114.32C361.488 114.726 360.61 115.311 359.844 116.076C359.101 116.819 358.516 117.697 358.088 118.71C357.683 119.7 357.481 120.803 357.481 122.019C357.481 123.212 357.683 124.315 358.088 125.328C358.516 126.341 359.101 127.23 359.844 127.995C360.587 128.738 361.465 129.312 362.478 129.717C363.491 130.123 364.594 130.325 365.787 130.325ZM393.33 134.174C391.484 134.174 389.785 133.871 388.232 133.263C386.679 132.655 385.328 131.811 384.18 130.73C383.032 129.627 382.143 128.344 381.512 126.881C380.882 125.395 380.567 123.775 380.567 122.019C380.567 120.263 380.882 118.654 381.512 117.19C382.143 115.705 383.032 114.422 384.18 113.341C385.328 112.238 386.679 111.383 388.232 110.775C389.785 110.167 391.473 109.863 393.297 109.863C395.142 109.863 396.831 110.167 398.361 110.775C399.915 111.383 401.265 112.238 402.413 113.341C403.561 114.422 404.45 115.705 405.081 117.19C405.711 118.654 406.026 120.263 406.026 122.019C406.026 123.775 405.711 125.395 405.081 126.881C404.45 128.367 403.561 129.65 402.413 130.73C401.265 131.811 399.915 132.655 398.361 133.263C396.831 133.871 395.154 134.174 393.33 134.174ZM393.297 130.325C394.49 130.325 395.593 130.123 396.606 129.717C397.618 129.312 398.496 128.738 399.239 127.995C399.982 127.23 400.556 126.352 400.961 125.362C401.389 124.349 401.603 123.234 401.603 122.019C401.603 120.803 401.389 119.7 400.961 118.71C400.556 117.697 399.982 116.819 399.239 116.076C398.496 115.311 397.618 114.726 396.606 114.32C395.593 113.915 394.49 113.713 393.297 113.713C392.103 113.713 391 113.915 389.988 114.32C388.997 114.726 388.119 115.311 387.354 116.076C386.611 116.819 386.026 117.697 385.598 118.71C385.193 119.7 384.99 120.803 384.99 122.019C384.99 123.212 385.193 124.315 385.598 125.328C386.026 126.341 386.611 127.23 387.354 127.995C388.097 128.738 388.975 129.312 389.988 129.717C391 130.123 392.103 130.325 393.297 130.325ZM421.089 131.338L416.294 124.821L421.089 118.271H424.904L420.211 124.821L424.904 131.338H421.089ZM428.112 131.338L423.317 124.821L428.112 118.271H431.927L427.234 124.821L431.927 131.338H428.112ZM435.275 133.837V110.201H445.844C448.5 110.201 450.571 110.73 452.057 111.788C453.542 112.823 454.285 114.32 454.285 116.279C454.285 118.215 453.576 119.712 452.158 120.77C450.74 121.805 448.871 122.323 446.553 122.323L447.161 121.107C449.794 121.107 451.832 121.636 453.272 122.694C454.713 123.752 455.433 125.283 455.433 127.286C455.433 129.335 454.679 130.944 453.171 132.115C451.663 133.263 449.434 133.837 446.485 133.837H435.275ZM439.597 130.46H446.35C447.881 130.46 449.04 130.179 449.828 129.616C450.616 129.031 451.01 128.142 451.01 126.949C451.01 125.756 450.616 124.889 449.828 124.349C449.04 123.786 447.881 123.505 446.35 123.505H439.597V130.46ZM439.597 120.297H445.472C446.891 120.297 447.971 120.016 448.714 119.453C449.457 118.867 449.828 118.035 449.828 116.954C449.828 115.829 449.457 114.984 448.714 114.422C447.971 113.859 446.891 113.578 445.472 113.578H439.597V120.297ZM467.153 134.073C465.262 134.073 463.574 133.679 462.088 132.891C460.625 132.081 459.477 130.978 458.644 129.582C457.811 128.187 457.395 126.6 457.395 124.821C457.395 123.021 457.811 121.434 458.644 120.061C459.477 118.665 460.625 117.573 462.088 116.785C463.574 115.997 465.262 115.604 467.153 115.604C468.909 115.604 470.451 115.964 471.779 116.684C473.129 117.382 474.154 118.417 474.851 119.79L471.61 121.681C471.07 120.826 470.406 120.196 469.618 119.79C468.852 119.385 468.02 119.183 467.119 119.183C466.084 119.183 465.15 119.408 464.317 119.858C463.484 120.308 462.831 120.961 462.358 121.816C461.886 122.649 461.649 123.651 461.649 124.821C461.649 125.992 461.886 127.005 462.358 127.86C462.831 128.693 463.484 129.335 464.317 129.785C465.15 130.235 466.084 130.46 467.119 130.46C468.02 130.46 468.852 130.258 469.618 129.852C470.406 129.447 471.07 128.817 471.61 127.962L474.851 129.852C474.154 131.203 473.129 132.25 471.779 132.993C470.451 133.713 468.909 134.073 467.153 134.073ZM481.171 133.837V118.372L482.15 119.385H474.823V115.806H491.705V119.385H484.412L485.391 118.372V133.837H481.171ZM503.749 134.073C502.285 134.073 500.946 133.735 499.73 133.06C498.537 132.385 497.581 131.372 496.86 130.021C496.163 128.648 495.814 126.915 495.814 124.821C495.814 122.705 496.151 120.972 496.827 119.622C497.524 118.271 498.47 117.269 499.663 116.616C500.856 115.941 502.218 115.604 503.749 115.604C505.527 115.604 507.091 115.986 508.442 116.752C509.815 117.517 510.896 118.586 511.683 119.959C512.494 121.332 512.899 122.953 512.899 124.821C512.899 126.69 512.494 128.322 511.683 129.717C510.896 131.091 509.815 132.16 508.442 132.925C507.091 133.69 505.527 134.073 503.749 134.073ZM493.754 140.387V115.806H497.772V120.061L497.637 124.855L497.975 129.65V140.387H493.754ZM503.276 130.46C504.289 130.46 505.189 130.235 505.977 129.785C506.787 129.335 507.429 128.682 507.902 127.827C508.374 126.971 508.611 125.969 508.611 124.821C508.611 123.651 508.374 122.649 507.902 121.816C507.429 120.961 506.787 120.308 505.977 119.858C505.189 119.408 504.289 119.183 503.276 119.183C502.263 119.183 501.351 119.408 500.541 119.858C499.73 120.308 499.089 120.961 498.616 121.816C498.143 122.649 497.907 123.651 497.907 124.821C497.907 125.969 498.143 126.971 498.616 127.827C499.089 128.682 499.73 129.335 500.541 129.785C501.351 130.235 502.263 130.46 503.276 130.46ZM524.494 134.073C522.491 134.073 520.735 133.679 519.227 132.891C517.741 132.081 516.582 130.978 515.749 129.582C514.939 128.187 514.533 126.6 514.533 124.821C514.533 123.021 514.927 121.434 515.715 120.061C516.526 118.665 517.629 117.573 519.024 116.785C520.442 115.997 522.052 115.604 523.853 115.604C525.608 115.604 527.173 115.986 528.546 116.752C529.919 117.517 531 118.597 531.787 119.993C532.575 121.389 532.969 123.032 532.969 124.923C532.969 125.103 532.958 125.305 532.936 125.531C532.936 125.756 532.924 125.969 532.902 126.172H517.876V123.37H530.673L529.019 124.247C529.041 123.212 528.827 122.3 528.377 121.512C527.927 120.725 527.308 120.106 526.52 119.655C525.755 119.205 524.866 118.98 523.853 118.98C522.817 118.98 521.905 119.205 521.118 119.655C520.352 120.106 519.745 120.736 519.294 121.546C518.867 122.334 518.653 123.268 518.653 124.349V125.024C518.653 126.105 518.9 127.061 519.396 127.894C519.891 128.727 520.589 129.369 521.489 129.819C522.389 130.269 523.425 130.494 524.595 130.494C525.608 130.494 526.52 130.336 527.33 130.021C528.141 129.706 528.861 129.211 529.491 128.536L531.754 131.136C530.943 132.081 529.919 132.813 528.681 133.33C527.466 133.826 526.07 134.073 524.494 134.073ZM547.952 126.712C547.096 127.117 546.185 127.455 545.217 127.725C544.271 127.973 543.269 128.097 542.211 128.097C539.938 128.097 538.171 127.568 536.91 126.51C535.65 125.452 535.019 123.808 535.019 121.58V115.806H539.24V121.31C539.24 122.503 539.578 123.37 540.253 123.91C540.951 124.45 541.908 124.72 543.123 124.72C543.934 124.72 544.744 124.619 545.554 124.416C546.365 124.214 547.164 123.932 547.952 123.572V126.712ZM547.648 133.837V115.806H551.868V133.837H547.648ZM567.471 133.837V130.19L567.235 129.414V123.032C567.235 121.794 566.863 120.837 566.121 120.162C565.378 119.464 564.252 119.115 562.744 119.115C561.731 119.115 560.729 119.273 559.739 119.588C558.771 119.903 557.949 120.342 557.274 120.905L555.619 117.832C556.587 117.089 557.735 116.538 559.064 116.178C560.414 115.795 561.81 115.604 563.25 115.604C565.862 115.604 567.876 116.234 569.294 117.494C570.735 118.732 571.455 120.657 571.455 123.268V133.837H567.471ZM561.799 134.073C560.448 134.073 559.266 133.848 558.253 133.398C557.24 132.925 556.452 132.284 555.89 131.473C555.349 130.64 555.079 129.706 555.079 128.671C555.079 127.658 555.316 126.746 555.788 125.936C556.284 125.125 557.083 124.484 558.186 124.011C559.289 123.538 560.752 123.302 562.575 123.302H567.809V126.105H562.879C561.438 126.105 560.47 126.341 559.975 126.814C559.48 127.264 559.232 127.827 559.232 128.502C559.232 129.267 559.536 129.875 560.144 130.325C560.752 130.775 561.596 131.001 562.676 131.001C563.712 131.001 564.635 130.764 565.445 130.291C566.278 129.819 566.875 129.121 567.235 128.198L567.944 130.73C567.539 131.788 566.807 132.61 565.749 133.195C564.714 133.781 563.397 134.073 561.799 134.073ZM577.657 131.338H573.842L578.535 124.821L573.842 118.271H577.657L582.452 124.821L577.657 131.338ZM584.681 131.338H580.865L585.559 124.821L580.865 118.271H584.681L589.475 124.821L584.681 131.338Z" fill="white"/>
<path d="M98.0779 15.0147V60.2814C103.736 68.4546 118.071 81.0286 130.142 65.9397V15.0147H98.0779Z" fill="#FE0000"/>
<path d="M52.8112 15.0147H7.54456C33.9501 43.3064 63.7789 75.9526 88.6473 90.4592C103.736 79.897 101.221 65.9397 98.0779 60.2814L52.8112 15.0147Z" fill="#FE0000"/>
<path d="M88.6473 90.4592C111.281 103.662 130.142 82.9147 130.142 65.9397C118.071 81.0286 103.736 68.4546 98.0779 60.2814C101.221 65.9397 103.736 79.897 88.6473 90.4592Z" fill="#AF0001"/>
<path d="M98.0779 60.2814L52.8112 15.0147H7.54456C33.9501 43.3064 63.7789 75.9526 88.6473 90.4592M98.0779 60.2814V15.0147H130.142V65.9397M98.0779 60.2814C101.221 65.9397 103.736 79.897 88.6473 90.4592M98.0779 60.2814C103.736 68.4546 118.071 81.0286 130.142 65.9397M130.142 65.9397C130.142 82.9147 111.281 103.662 88.6473 90.4592" stroke="#FE0000" stroke-width="0.377222"/>
</svg>
