<svg width="176" height="38" viewBox="0 0 176 38" fill="none" xmlns="http://www.w3.org/2000/svg">
<path d="M43.9678 25.208C42.7718 25.208 41.6191 25.0693 40.5098 24.792C39.4178 24.4973 38.5511 24.1333 37.9098 23.7L39.2618 20.788C39.9031 21.1867 40.6571 21.516 41.5238 21.776C42.4078 22.0187 43.2744 22.14 44.1238 22.14C45.0598 22.14 45.7184 22.0273 46.0998 21.802C46.4984 21.5767 46.6978 21.2647 46.6978 20.866C46.6978 20.5367 46.5418 20.294 46.2298 20.138C45.9351 19.9647 45.5364 19.8347 45.0338 19.748C44.5311 19.6613 43.9764 19.5747 43.3698 19.488C42.7804 19.4013 42.1824 19.2887 41.5758 19.15C40.9691 18.994 40.4144 18.7687 39.9118 18.474C39.4091 18.1793 39.0018 17.7807 38.6898 17.278C38.3951 16.7753 38.2478 16.1253 38.2478 15.328C38.2478 14.444 38.4991 13.664 39.0018 12.988C39.5218 12.312 40.2671 11.7833 41.2378 11.402C42.2084 11.0033 43.3698 10.804 44.7218 10.804C45.6751 10.804 46.6458 10.908 47.6338 11.116C48.6218 11.324 49.4451 11.6273 50.1038 12.026L48.7518 14.912C48.0758 14.5133 47.3911 14.2447 46.6978 14.106C46.0218 13.95 45.3631 13.872 44.7218 13.872C43.8204 13.872 43.1618 13.9933 42.7458 14.236C42.3298 14.4787 42.1218 14.7907 42.1218 15.172C42.1218 15.5187 42.2691 15.7787 42.5638 15.952C42.8758 16.1253 43.2831 16.264 43.7858 16.368C44.2884 16.472 44.8344 16.5673 45.4238 16.654C46.0304 16.7233 46.6371 16.836 47.2438 16.992C47.8504 17.148 48.3964 17.3733 48.8818 17.668C49.3844 17.9453 49.7918 18.3353 50.1038 18.838C50.4158 19.3233 50.5718 19.9647 50.5718 20.762C50.5718 21.6287 50.3118 22.4 49.7918 23.076C49.2718 23.7347 48.5178 24.2547 47.5298 24.636C46.5591 25.0173 45.3718 25.208 43.9678 25.208ZM58.4043 25.208C56.7576 25.208 55.4749 24.792 54.5563 23.96C53.6376 23.1107 53.1783 21.854 53.1783 20.19V7.918H57.2343V20.138C57.2343 20.7273 57.3903 21.1867 57.7023 21.516C58.0143 21.828 58.4389 21.984 58.9763 21.984C59.6176 21.984 60.1636 21.8107 60.6143 21.464L61.7063 24.324C61.2903 24.6187 60.7876 24.844 60.1983 25C59.6263 25.1387 59.0283 25.208 58.4043 25.208ZM51.0203 14.444V11.324H60.7183V14.444H51.0203ZM63.5931 25V11.012H67.4671V14.964L66.9211 13.82C67.3371 12.832 68.0044 12.0867 68.9231 11.584C69.8418 11.064 70.9598 10.804 72.2771 10.804V14.548C72.1038 14.5307 71.9478 14.522 71.8091 14.522C71.6704 14.5047 71.5231 14.496 71.3671 14.496C70.2578 14.496 69.3564 14.8167 68.6631 15.458C67.9871 16.082 67.6491 17.0613 67.6491 18.396V25H63.5931ZM81.1392 25.208C79.5446 25.208 78.1406 24.896 76.9272 24.272C75.7312 23.648 74.8039 22.7987 74.1452 21.724C73.4866 20.632 73.1572 19.3927 73.1572 18.006C73.1572 16.602 73.4779 15.3627 74.1192 14.288C74.7779 13.196 75.6706 12.3467 76.7972 11.74C77.9239 11.116 79.1979 10.804 80.6192 10.804C81.9886 10.804 83.2192 11.0987 84.3112 11.688C85.4206 12.26 86.2959 13.092 86.9372 14.184C87.5786 15.2587 87.8992 16.55 87.8992 18.058C87.8992 18.214 87.8906 18.396 87.8732 18.604C87.8559 18.7947 87.8386 18.9767 87.8212 19.15H76.4592V16.784H85.6892L84.1292 17.486C84.1292 16.758 83.9819 16.1253 83.6872 15.588C83.3926 15.0507 82.9852 14.6347 82.4652 14.34C81.9452 14.028 81.3386 13.872 80.6452 13.872C79.9519 13.872 79.3366 14.028 78.7992 14.34C78.2792 14.6347 77.8719 15.0593 77.5772 15.614C77.2826 16.1513 77.1352 16.7927 77.1352 17.538V18.162C77.1352 18.9247 77.2999 19.6007 77.6292 20.19C77.9759 20.762 78.4526 21.204 79.0592 21.516C79.6832 21.8107 80.4112 21.958 81.2432 21.958C81.9886 21.958 82.6386 21.8453 83.1932 21.62C83.7652 21.3947 84.2852 21.0567 84.7532 20.606L86.9112 22.946C86.2699 23.674 85.4639 24.2373 84.4932 24.636C83.5226 25.0173 82.4046 25.208 81.1392 25.208ZM96.9696 25.208C95.4616 25.208 94.1182 24.9047 92.9396 24.298C91.7609 23.674 90.8336 22.816 90.1576 21.724C89.4989 20.632 89.1696 19.3927 89.1696 18.006C89.1696 16.602 89.4989 15.3627 90.1576 14.288C90.8336 13.196 91.7609 12.3467 92.9396 11.74C94.1182 11.116 95.4616 10.804 96.9696 10.804C98.4429 10.804 99.7256 11.116 100.818 11.74C101.91 12.3467 102.716 13.222 103.236 14.366L100.09 16.056C99.7256 15.3973 99.2662 14.912 98.7116 14.6C98.1742 14.288 97.5849 14.132 96.9436 14.132C96.2502 14.132 95.6262 14.288 95.0716 14.6C94.5169 14.912 94.0749 15.354 93.7456 15.926C93.4336 16.498 93.2776 17.1913 93.2776 18.006C93.2776 18.8207 93.4336 19.514 93.7456 20.086C94.0749 20.658 94.5169 21.1 95.0716 21.412C95.6262 21.724 96.2502 21.88 96.9436 21.88C97.5849 21.88 98.1742 21.7327 98.7116 21.438C99.2662 21.126 99.7256 20.632 100.09 19.956L103.236 21.672C102.716 22.7987 101.91 23.674 100.818 24.298C99.7256 24.9047 98.4429 25.208 96.9696 25.208ZM113.607 10.804C114.716 10.804 115.704 11.0293 116.571 11.48C117.455 11.9133 118.148 12.5893 118.651 13.508C119.153 14.4093 119.405 15.5707 119.405 16.992V25H115.349V17.616C115.349 16.4893 115.097 15.6573 114.595 15.12C114.109 14.5827 113.416 14.314 112.515 14.314C111.873 14.314 111.293 14.4527 110.773 14.73C110.27 14.99 109.871 15.3973 109.577 15.952C109.299 16.5067 109.161 17.2173 109.161 18.084V25H105.105V5.708H109.161V14.886L108.251 13.716C108.753 12.78 109.473 12.0607 110.409 11.558C111.345 11.0553 112.411 10.804 113.607 10.804ZM131.271 25V22.27L131.011 21.672V16.784C131.011 15.9173 130.743 15.2413 130.205 14.756C129.685 14.2707 128.879 14.028 127.787 14.028C127.042 14.028 126.305 14.1493 125.577 14.392C124.867 14.6173 124.26 14.9293 123.757 15.328L122.301 12.494C123.064 11.9567 123.983 11.5407 125.057 11.246C126.132 10.9513 127.224 10.804 128.333 10.804C130.465 10.804 132.121 11.3067 133.299 12.312C134.478 13.3173 135.067 14.886 135.067 17.018V25H131.271ZM127.007 25.208C125.915 25.208 124.979 25.026 124.199 24.662C123.419 24.2807 122.821 23.7693 122.405 23.128C121.989 22.4867 121.781 21.7673 121.781 20.97C121.781 20.138 121.981 19.41 122.379 18.786C122.795 18.162 123.445 17.6767 124.329 17.33C125.213 16.966 126.366 16.784 127.787 16.784H131.505V19.15H128.229C127.276 19.15 126.617 19.306 126.253 19.618C125.907 19.93 125.733 20.32 125.733 20.788C125.733 21.308 125.933 21.724 126.331 22.036C126.747 22.3307 127.311 22.478 128.021 22.478C128.697 22.478 129.304 22.322 129.841 22.01C130.379 21.6807 130.769 21.204 131.011 20.58L131.635 22.452C131.341 23.3533 130.803 24.038 130.023 24.506C129.243 24.974 128.238 25.208 127.007 25.208ZM139.882 25.208C139.189 25.208 138.591 24.974 138.088 24.506C137.603 24.0207 137.36 23.4053 137.36 22.66C137.36 21.9147 137.603 21.3167 138.088 20.866C138.591 20.398 139.189 20.164 139.882 20.164C140.593 20.164 141.191 20.398 141.676 20.866C142.161 21.3167 142.404 21.9147 142.404 22.66C142.404 23.4053 142.161 24.0207 141.676 24.506C141.191 24.974 140.593 25.208 139.882 25.208ZM153.031 25.208C151.8 25.208 150.743 24.948 149.859 24.428C148.975 23.908 148.299 23.1193 147.831 22.062C147.363 20.9873 147.129 19.6353 147.129 18.006C147.129 16.3593 147.372 15.0073 147.857 13.95C148.36 12.8927 149.053 12.104 149.937 11.584C150.821 11.064 151.852 10.804 153.031 10.804C154.348 10.804 155.527 11.0987 156.567 11.688C157.624 12.2773 158.456 13.1093 159.063 14.184C159.687 15.2587 159.999 16.5327 159.999 18.006C159.999 19.462 159.687 20.7273 159.063 21.802C158.456 22.8767 157.624 23.7173 156.567 24.324C155.527 24.9133 154.348 25.208 153.031 25.208ZM144.763 25V5.708H148.819V13.846L148.559 17.98L148.637 22.14V25H144.763ZM152.329 21.88C153.005 21.88 153.603 21.724 154.123 21.412C154.66 21.1 155.085 20.658 155.397 20.086C155.726 19.4967 155.891 18.8033 155.891 18.006C155.891 17.1913 155.726 16.498 155.397 15.926C155.085 15.354 154.66 14.912 154.123 14.6C153.603 14.288 153.005 14.132 152.329 14.132C151.653 14.132 151.046 14.288 150.509 14.6C149.972 14.912 149.547 15.354 149.235 15.926C148.923 16.498 148.767 17.1913 148.767 18.006C148.767 18.8033 148.923 19.4967 149.235 20.086C149.547 20.658 149.972 21.1 150.509 21.412C151.046 21.724 151.653 21.88 152.329 21.88ZM163.711 30.252C162.983 30.252 162.264 30.1393 161.553 29.914C160.843 29.6887 160.262 29.3767 159.811 28.978L161.293 26.092C161.605 26.3693 161.961 26.586 162.359 26.742C162.775 26.898 163.183 26.976 163.581 26.976C164.153 26.976 164.604 26.8373 164.933 26.56C165.28 26.3 165.592 25.858 165.869 25.234L166.597 23.518L166.909 23.076L171.927 11.012H175.827L169.509 25.858C169.059 26.9847 168.539 27.8687 167.949 28.51C167.377 29.1513 166.736 29.602 166.025 29.862C165.332 30.122 164.561 30.252 163.711 30.252ZM166.103 25.546L159.863 11.012H164.049L168.885 22.712L166.103 25.546Z" fill="white"/>
<path d="M79.9365 36V29.7343H82.5144C83.0693 29.7343 83.5437 29.8238 83.9376 30.0028C84.3374 30.1818 84.6447 30.4384 84.8595 30.7726C85.0744 31.1068 85.1818 31.5036 85.1818 31.9631C85.1818 32.4226 85.0744 32.8194 84.8595 33.1536C84.6447 33.4877 84.3374 33.7443 83.9376 33.9234C83.5437 34.1024 83.0693 34.1919 82.5144 34.1919H80.5809L81.1001 33.6459V36H79.9365ZM81.1001 33.7712L80.5809 33.2073H82.4607C82.9739 33.2073 83.3587 33.0999 83.6153 32.885C83.8779 32.6642 84.0092 32.3569 84.0092 31.9631C84.0092 31.5633 83.8779 31.2559 83.6153 31.0411C83.3587 30.8263 82.9739 30.7189 82.4607 30.7189H80.5809L81.1001 30.146V33.7712ZM86.023 36V29.7343H86.9718L89.7198 34.3083H89.2096L91.9128 29.7343H92.8616L92.8795 36H91.7696L91.7607 31.4618H91.9934L89.7019 35.2839H89.1828L86.8555 31.4618H87.124V36H86.023ZM97.2735 36.0895C96.7842 36.0895 96.3337 36.009 95.9219 35.8478C95.5102 35.6867 95.1521 35.4629 94.8478 35.1765C94.5435 34.8841 94.3077 34.544 94.1407 34.1561C93.9736 33.7622 93.89 33.3326 93.89 32.8671C93.89 32.4017 93.9736 31.975 94.1407 31.5871C94.3077 31.1933 94.5435 30.8531 94.8478 30.5667C95.1521 30.2743 95.5102 30.0476 95.9219 29.8864C96.3337 29.7253 96.7812 29.6448 97.2646 29.6448C97.7539 29.6448 98.2015 29.7253 98.6072 29.8864C99.019 30.0476 99.377 30.2743 99.6814 30.5667C99.9857 30.8531 100.221 31.1933 100.388 31.5871C100.556 31.975 100.639 32.4017 100.639 32.8671C100.639 33.3326 100.556 33.7622 100.388 34.1561C100.221 34.5499 99.9857 34.8901 99.6814 35.1765C99.377 35.4629 99.019 35.6867 98.6072 35.8478C98.2015 36.009 97.7569 36.0895 97.2735 36.0895ZM97.2646 35.0691C97.5808 35.0691 97.8732 35.0154 98.1418 34.908C98.4103 34.8006 98.643 34.6484 98.84 34.4515C99.0369 34.2486 99.1891 34.0159 99.2965 33.7533C99.4098 33.4848 99.4665 33.1894 99.4665 32.8671C99.4665 32.5449 99.4098 32.2525 99.2965 31.9899C99.1891 31.7214 99.0369 31.4887 98.84 31.2917C98.643 31.0889 98.4103 30.9337 98.1418 30.8263C97.8732 30.7189 97.5808 30.6652 97.2646 30.6652C96.9483 30.6652 96.6559 30.7189 96.3874 30.8263C96.1248 30.9337 95.8921 31.0889 95.6892 31.2917C95.4923 31.4887 95.3371 31.7214 95.2237 31.9899C95.1163 32.2525 95.0626 32.5449 95.0626 32.8671C95.0626 33.1834 95.1163 33.4758 95.2237 33.7443C95.3371 34.0129 95.4923 34.2486 95.6892 34.4515C95.8861 34.6484 96.1188 34.8006 96.3874 34.908C96.6559 35.0154 96.9483 35.0691 97.2646 35.0691ZM104.566 36.0895C104.077 36.0895 103.626 36.009 103.215 35.8478C102.803 35.6867 102.445 35.4629 102.14 35.1765C101.836 34.8841 101.6 34.544 101.433 34.1561C101.266 33.7622 101.183 33.3326 101.183 32.8671C101.183 32.4017 101.266 31.975 101.433 31.5871C101.6 31.1933 101.836 30.8531 102.14 30.5667C102.445 30.2743 102.803 30.0476 103.215 29.8864C103.626 29.7253 104.074 29.6448 104.557 29.6448C105.047 29.6448 105.494 29.7253 105.9 29.8864C106.312 30.0476 106.67 30.2743 106.974 30.5667C107.278 30.8531 107.514 31.1933 107.681 31.5871C107.848 31.975 107.932 32.4017 107.932 32.8671C107.932 33.3326 107.848 33.7622 107.681 34.1561C107.514 34.5499 107.278 34.8901 106.974 35.1765C106.67 35.4629 106.312 35.6867 105.9 35.8478C105.494 36.009 105.05 36.0895 104.566 36.0895ZM104.557 35.0691C104.874 35.0691 105.166 35.0154 105.434 34.908C105.703 34.8006 105.936 34.6484 106.133 34.4515C106.33 34.2486 106.482 34.0159 106.589 33.7533C106.703 33.4848 106.759 33.1894 106.759 32.8671C106.759 32.5449 106.703 32.2525 106.589 31.9899C106.482 31.7214 106.33 31.4887 106.133 31.2917C105.936 31.0889 105.703 30.9337 105.434 30.8263C105.166 30.7189 104.874 30.6652 104.557 30.6652C104.241 30.6652 103.949 30.7189 103.68 30.8263C103.417 30.9337 103.185 31.0889 102.982 31.2917C102.785 31.4887 102.63 31.7214 102.516 31.9899C102.409 32.2525 102.355 32.5449 102.355 32.8671C102.355 33.1834 102.409 33.4758 102.516 33.7443C102.63 34.0129 102.785 34.2486 102.982 34.4515C103.179 34.6484 103.412 34.8006 103.68 34.908C103.949 35.0154 104.241 35.0691 104.557 35.0691ZM111.925 35.3376L110.654 33.6101L111.925 31.8736H112.936L111.692 33.6101L112.936 35.3376H111.925ZM113.787 35.3376L112.516 33.6101L113.787 31.8736H114.798L113.554 33.6101L114.798 35.3376H113.787ZM115.686 36V29.7343H118.487C119.191 29.7343 119.74 29.8745 120.134 30.155C120.528 30.4295 120.725 30.8263 120.725 31.3455C120.725 31.8586 120.537 32.2555 120.161 32.5359C119.785 32.8104 119.29 32.9477 118.675 32.9477L118.836 32.6255C119.535 32.6255 120.075 32.7657 120.457 33.0462C120.838 33.3266 121.029 33.7324 121.029 34.2635C121.029 34.8065 120.829 35.2332 120.43 35.5435C120.03 35.8478 119.439 36 118.657 36H115.686ZM116.831 35.1049H118.622C119.027 35.1049 119.335 35.0303 119.544 34.8811C119.752 34.726 119.857 34.4903 119.857 34.174C119.857 33.8577 119.752 33.628 119.544 33.4848C119.335 33.3356 119.027 33.261 118.622 33.261H116.831V35.1049ZM116.831 32.4106H118.389C118.765 32.4106 119.051 32.336 119.248 32.1869C119.445 32.0317 119.544 31.8109 119.544 31.5245C119.544 31.2261 119.445 31.0023 119.248 30.8531C119.051 30.704 118.765 30.6294 118.389 30.6294H116.831V32.4106ZM124.136 36.0627C123.635 36.0627 123.187 35.9582 122.794 35.7494C122.406 35.5345 122.101 35.2421 121.881 34.8722C121.66 34.5022 121.549 34.0815 121.549 33.6101C121.549 33.1327 121.66 32.712 121.881 32.348C122.101 31.978 122.406 31.6886 122.794 31.4797C123.187 31.2709 123.635 31.1664 124.136 31.1664C124.602 31.1664 125.01 31.2619 125.363 31.4529C125.721 31.6379 125.992 31.9124 126.177 32.2764L125.318 32.7776C125.175 32.5509 124.999 32.3838 124.79 32.2764C124.587 32.169 124.366 32.1152 124.127 32.1152C123.853 32.1152 123.605 32.1749 123.384 32.2943C123.164 32.4136 122.991 32.5867 122.865 32.8134C122.74 33.0342 122.677 33.2998 122.677 33.6101C122.677 33.9204 122.74 34.1889 122.865 34.4157C122.991 34.6365 123.164 34.8065 123.384 34.9259C123.605 35.0452 123.853 35.1049 124.127 35.1049C124.366 35.1049 124.587 35.0512 124.79 34.9438C124.999 34.8364 125.175 34.6693 125.318 34.4425L126.177 34.9438C125.992 35.3018 125.721 35.5793 125.363 35.7762C125.01 35.9672 124.602 36.0627 124.136 36.0627ZM127.852 36V31.9004L128.112 32.169H126.169V31.2201H130.645V32.169H128.712L128.971 31.9004V36H127.852ZM133.838 36.0627C133.45 36.0627 133.095 35.9731 132.772 35.7941C132.456 35.6151 132.203 35.3466 132.012 34.9885C131.827 34.6245 131.734 34.165 131.734 33.6101C131.734 33.0491 131.824 32.5896 132.003 32.2316C132.188 31.8736 132.438 31.608 132.755 31.435C133.071 31.2559 133.432 31.1664 133.838 31.1664C134.309 31.1664 134.724 31.2679 135.082 31.4708C135.446 31.6737 135.732 31.9571 135.941 32.3211C136.156 32.6851 136.263 33.1148 136.263 33.6101C136.263 34.1054 136.156 34.538 135.941 34.908C135.732 35.272 135.446 35.5554 135.082 35.7583C134.724 35.9612 134.309 36.0627 133.838 36.0627ZM131.188 37.7365V31.2201H132.253V32.348L132.217 33.619L132.307 34.8901V37.7365H131.188ZM133.712 35.1049C133.981 35.1049 134.219 35.0452 134.428 34.9259C134.643 34.8065 134.813 34.6335 134.939 34.4067C135.064 34.18 135.127 33.9144 135.127 33.6101C135.127 33.2998 135.064 33.0342 134.939 32.8134C134.813 32.5867 134.643 32.4136 134.428 32.2943C134.219 32.1749 133.981 32.1152 133.712 32.1152C133.444 32.1152 133.202 32.1749 132.987 32.2943C132.772 32.4136 132.602 32.5867 132.477 32.8134C132.352 33.0342 132.289 33.2998 132.289 33.6101C132.289 33.9144 132.352 34.18 132.477 34.4067C132.602 34.6335 132.772 34.8065 132.987 34.9259C133.202 35.0452 133.444 35.1049 133.712 35.1049ZM139.337 36.0627C138.806 36.0627 138.341 35.9582 137.941 35.7494C137.547 35.5345 137.24 35.2421 137.019 34.8722C136.804 34.5022 136.697 34.0815 136.697 33.6101C136.697 33.1327 136.801 32.712 137.01 32.348C137.225 31.978 137.517 31.6886 137.887 31.4797C138.263 31.2709 138.69 31.1664 139.167 31.1664C139.633 31.1664 140.047 31.2679 140.411 31.4708C140.775 31.6737 141.062 31.9601 141.271 32.3301C141.479 32.7 141.584 33.1357 141.584 33.6369C141.584 33.6847 141.581 33.7384 141.575 33.798C141.575 33.8577 141.572 33.9144 141.566 33.9681H137.583V33.2252H140.975L140.537 33.4579C140.543 33.1834 140.486 32.9417 140.367 32.7329C140.247 32.524 140.083 32.3599 139.874 32.2406C139.671 32.1212 139.436 32.0615 139.167 32.0615C138.893 32.0615 138.651 32.1212 138.442 32.2406C138.239 32.3599 138.078 32.527 137.959 32.7418C137.845 32.9507 137.789 33.1983 137.789 33.4848V33.6638C137.789 33.9502 137.854 34.2038 137.986 34.4246C138.117 34.6454 138.302 34.8155 138.541 34.9348C138.779 35.0542 139.054 35.1138 139.364 35.1138C139.633 35.1138 139.874 35.0721 140.089 34.9885C140.304 34.905 140.495 34.7737 140.662 34.5947L141.262 35.2839C141.047 35.5345 140.775 35.7285 140.447 35.8657C140.125 35.997 139.755 36.0627 139.337 36.0627ZM145.556 34.1113C145.329 34.2187 145.087 34.3083 144.831 34.3799C144.58 34.4455 144.314 34.4783 144.034 34.4783C143.431 34.4783 142.963 34.3381 142.629 34.0576C142.294 33.7772 142.127 33.3415 142.127 32.7508V31.2201H143.246V32.6792C143.246 32.9954 143.336 33.2252 143.515 33.3684C143.7 33.5116 143.953 33.5832 144.276 33.5832C144.49 33.5832 144.705 33.5564 144.92 33.5027C145.135 33.449 145.347 33.3744 145.556 33.2789V34.1113ZM145.475 36V31.2201H146.594V36H145.475ZM150.73 36V35.0333L150.668 34.8274V33.1357C150.668 32.8075 150.569 32.5538 150.372 32.3748C150.175 32.1898 149.877 32.0973 149.477 32.0973C149.209 32.0973 148.943 32.1391 148.68 32.2227C148.424 32.3062 148.206 32.4226 148.027 32.5717L147.588 31.7572C147.845 31.5603 148.149 31.4141 148.501 31.3186C148.859 31.2172 149.229 31.1664 149.611 31.1664C150.304 31.1664 150.838 31.3335 151.214 31.6677C151.595 31.9959 151.786 32.5061 151.786 33.1983V36H150.73ZM149.226 36.0627C148.868 36.0627 148.555 36.003 148.287 35.8836C148.018 35.7583 147.809 35.5883 147.66 35.3734C147.517 35.1526 147.445 34.905 147.445 34.6305C147.445 34.362 147.508 34.1203 147.633 33.9055C147.764 33.6906 147.976 33.5206 148.269 33.3952C148.561 33.2699 148.949 33.2073 149.432 33.2073H150.82V33.9502H149.513C149.131 33.9502 148.874 34.0129 148.743 34.1382C148.612 34.2575 148.546 34.4067 148.546 34.5857C148.546 34.7886 148.627 34.9497 148.788 35.0691C148.949 35.1884 149.173 35.2481 149.459 35.2481C149.734 35.2481 149.978 35.1855 150.193 35.0601C150.414 34.9348 150.572 34.7498 150.668 34.5052L150.855 35.1765C150.748 35.457 150.554 35.6748 150.274 35.8299C149.999 35.9851 149.65 36.0627 149.226 36.0627ZM153.431 35.3376H152.419L153.663 33.6101L152.419 31.8736H153.431L154.702 33.6101L153.431 35.3376ZM155.292 35.3376H154.281L155.525 33.6101L154.281 31.8736H155.292L156.563 33.6101L155.292 35.3376Z" fill="white"/>
<path d="M26 4.00024V16.0002C27.5 18.1669 31.3 21.5002 34.5 17.5002V4.00024H26Z" fill="#FE0000"/>
<path d="M14 4.00024H2C9 11.5002 16.9075 20.1546 23.5 24.0002C27.5 21.2002 26.8333 17.5002 26 16.0002L14 4.00024Z" fill="#FE0000"/>
<path d="M23.5 24.0002C29.5 27.5002 34.5 22.0002 34.5 17.5002C31.3 21.5002 27.5 18.1669 26 16.0002C26.8333 17.5002 27.5 21.2002 23.5 24.0002Z" fill="#AF0001"/>
<path d="M26 16.0002L14 4.00024H2C9 11.5002 16.9075 20.1546 23.5 24.0002M26 16.0002V4.00024H34.5V17.5002M26 16.0002C26.8333 17.5002 27.5 21.2002 23.5 24.0002M26 16.0002C27.5 18.1669 31.3 21.5002 34.5 17.5002M34.5 17.5002C34.5 22.0002 29.5 27.5002 23.5 24.0002" stroke="#FE0000" stroke-width="0.1"/>
</svg>
