<svg width="30" height="30" viewBox="0 0 30 30" fill="none" xmlns="http://www.w3.org/2000/svg">
<rect width="30" height="30" rx="15" fill="white"/>
<path d="M15 14.125C16.1603 14.125 17.2731 14.5859 18.0936 15.4064C18.9141 16.2269 19.375 17.3397 19.375 18.5V23.75H10.625V18.5C10.625 17.3397 11.0859 16.2269 11.9064 15.4064C12.7269 14.5859 13.8397 14.125 15 14.125ZM9.127 16.7552C8.98775 17.2249 8.90549 17.7097 8.882 18.199L8.875 18.5V23.75H6.25V19.8125C6.24983 19.0579 6.52827 18.3298 7.03193 17.7678C7.53559 17.2059 8.22899 16.8496 8.97913 16.7675L9.12788 16.7552H9.127ZM20.873 16.7552C21.6517 16.8027 22.3829 17.1455 22.9175 17.7136C23.4521 18.2817 23.7499 19.0324 23.75 19.8125V23.75H21.125V18.5C21.125 17.8936 21.0375 17.3082 20.873 16.7552ZM9.3125 11.5C9.89266 11.5 10.4491 11.7305 10.8593 12.1407C11.2695 12.5509 11.5 13.1073 11.5 13.6875C11.5 14.2677 11.2695 14.8241 10.8593 15.2343C10.4491 15.6445 9.89266 15.875 9.3125 15.875C8.73234 15.875 8.17594 15.6445 7.7657 15.2343C7.35547 14.8241 7.125 14.2677 7.125 13.6875C7.125 13.1073 7.35547 12.5509 7.7657 12.1407C8.17594 11.7305 8.73234 11.5 9.3125 11.5ZM20.6875 11.5C21.2677 11.5 21.8241 11.7305 22.2343 12.1407C22.6445 12.5509 22.875 13.1073 22.875 13.6875C22.875 14.2677 22.6445 14.8241 22.2343 15.2343C21.8241 15.6445 21.2677 15.875 20.6875 15.875C20.1073 15.875 19.5509 15.6445 19.1407 15.2343C18.7305 14.8241 18.5 14.2677 18.5 13.6875C18.5 13.1073 18.7305 12.5509 19.1407 12.1407C19.5509 11.7305 20.1073 11.5 20.6875 11.5ZM15 6.25C15.9283 6.25 16.8185 6.61875 17.4749 7.27513C18.1313 7.9315 18.5 8.82174 18.5 9.75C18.5 10.6783 18.1313 11.5685 17.4749 12.2249C16.8185 12.8813 15.9283 13.25 15 13.25C14.0717 13.25 13.1815 12.8813 12.5251 12.2249C11.8687 11.5685 11.5 10.6783 11.5 9.75C11.5 8.82174 11.8687 7.9315 12.5251 7.27513C13.1815 6.61875 14.0717 6.25 15 6.25Z" fill="url(#paint0_linear_488_1409)"/>
<defs>
<linearGradient id="paint0_linear_488_1409" x1="6.55702" y1="12.6974" x2="25.7172" y2="13.1453" gradientUnits="userSpaceOnUse">
<stop stop-color="#FF851D"/>
<stop offset="1" stop-color="#FFA456"/>
</linearGradient>
</defs>
</svg>
