<svg width="30" height="30" viewBox="0 0 30 30" fill="none" xmlns="http://www.w3.org/2000/svg">
<rect width="30" height="30" rx="15" fill="white"/>
<path d="M17.9993 10.0615V16.7077C18.8301 17.9077 20.9347 19.7538 22.707 17.5384V10.0615H17.9993Z" fill="#FE0000"/>
<path d="M11.3532 10.0615H4.70703C8.58395 14.2154 12.9635 19.0086 16.6147 21.1384C18.8301 19.5877 18.4609 17.5384 17.9993 16.7077L11.3532 10.0615Z" fill="#FE0000"/>
<path d="M16.6147 21.1384C19.9378 23.0769 22.707 20.0308 22.707 17.5384C20.9347 19.7538 18.8301 17.9077 17.9993 16.7077C18.4609 17.5384 18.8301 19.5877 16.6147 21.1384Z" fill="#AF0001"/>
<path d="M17.9993 16.7077L11.3532 10.0615H4.70703C8.58395 14.2154 12.9635 19.0086 16.6147 21.1384M17.9993 16.7077V10.0615H22.707V17.5384M17.9993 16.7077C18.4609 17.5384 18.8301 19.5877 16.6147 21.1384M17.9993 16.7077C18.8301 17.9077 20.9347 19.7538 22.707 17.5384M22.707 17.5384C22.707 20.0308 19.9378 23.0769 16.6147 21.1384" stroke="#FE0000" stroke-width="0.0553846"/>
</svg>
