<svg width="30" height="30" viewBox="0 0 30 30" fill="none" xmlns="http://www.w3.org/2000/svg">
<rect width="30" height="30" rx="15" fill="white"/>
<path d="M24.7875 15.4289L22.6781 10.507C22.6243 10.3799 22.5343 10.2715 22.4192 10.1952C22.3042 10.119 22.1693 10.0782 22.0312 10.0781H19.9219V8.67188C19.9219 8.48539 19.8478 8.30655 19.7159 8.17469C19.5841 8.04283 19.4052 7.96875 19.2188 7.96875H5.85938C5.67289 7.96875 5.49405 8.04283 5.36219 8.17469C5.23033 8.30655 5.15625 8.48539 5.15625 8.67188V20.625C5.15625 20.8115 5.23033 20.9903 5.36219 21.1222C5.49405 21.254 5.67289 21.3281 5.85938 21.3281H7.36406C7.52598 21.9239 7.87945 22.4499 8.36995 22.8249C8.86045 23.1999 9.46071 23.403 10.0781 23.403C10.6955 23.403 11.2958 23.1999 11.7863 22.8249C12.2768 22.4499 12.6303 21.9239 12.7922 21.3281H17.2078C17.3697 21.9239 17.7232 22.4499 18.2137 22.8249C18.7042 23.1999 19.3045 23.403 19.9219 23.403C20.5393 23.403 21.1396 23.1999 21.63 22.8249C22.1205 22.4499 22.474 21.9239 22.6359 21.3281H24.1406C24.3271 21.3281 24.5059 21.254 24.6378 21.1222C24.7697 20.9903 24.8438 20.8115 24.8438 20.625V15.7031C24.8436 15.6089 24.8244 15.5156 24.7875 15.4289ZM19.9219 11.4844H21.5672L23.0719 15H19.9219V11.4844ZM10.0781 22.0312C9.79999 22.0312 9.52811 21.9488 9.29685 21.7943C9.0656 21.6397 8.88535 21.4201 8.77892 21.1631C8.67248 20.9062 8.64464 20.6234 8.6989 20.3507C8.75316 20.0779 8.88709 19.8273 9.08376 19.6306C9.28042 19.434 9.53099 19.3 9.80378 19.2458C10.0766 19.1915 10.3593 19.2194 10.6163 19.3258C10.8732 19.4322 11.0929 19.6125 11.2474 19.8437C11.4019 20.075 11.4844 20.3469 11.4844 20.625C11.4844 20.998 11.3362 21.3556 11.0725 21.6194C10.8088 21.8831 10.4511 22.0312 10.0781 22.0312ZM17.2078 19.9219H12.7922C12.6303 19.3261 12.2768 18.8001 11.7863 18.4251C11.2958 18.0501 10.6955 17.847 10.0781 17.847C9.46071 17.847 8.86045 18.0501 8.36995 18.4251C7.87945 18.8001 7.52598 19.3261 7.36406 19.9219H6.5625V9.375H18.5156V18.2062C18.1955 18.3921 17.9151 18.6393 17.6907 18.9337C17.4663 19.2281 17.3022 19.5639 17.2078 19.9219ZM19.9219 22.0312C19.6437 22.0312 19.3719 21.9488 19.1406 21.7943C18.9093 21.6397 18.7291 21.4201 18.6227 21.1631C18.5162 20.9062 18.4884 20.6234 18.5426 20.3507C18.5969 20.0779 18.7308 19.8273 18.9275 19.6306C19.1242 19.434 19.3747 19.3 19.6475 19.2458C19.9203 19.1915 20.2031 19.2194 20.46 19.3258C20.717 19.4322 20.9366 19.6125 21.0911 19.8437C21.2456 20.075 21.3281 20.3469 21.3281 20.625C21.3281 20.998 21.18 21.3556 20.9162 21.6194C20.6525 21.8831 20.2948 22.0312 19.9219 22.0312ZM23.4375 19.9219H22.6359C22.4805 19.3197 22.1297 18.786 21.6387 18.4043C21.1476 18.0226 20.5438 17.8145 19.9219 17.8125V16.4062H23.4375V19.9219Z" fill="url(#paint0_linear_488_1334)"/>
<path d="M17.2078 19.9219H12.7922C12.6303 19.3261 12.2768 18.8001 11.7863 18.4251C11.2958 18.0501 10.6955 17.847 10.0781 17.847C9.46071 17.847 8.86045 18.0501 8.36995 18.4251C7.87945 18.8001 7.52598 19.3261 7.36406 19.9219H6.5625V9.375H18.5156V18.2062C18.1955 18.3921 17.9151 18.6393 17.6907 18.9337C17.4663 19.2281 17.3022 19.5639 17.2078 19.9219Z" fill="url(#paint1_linear_488_1334)"/>
<path d="M23.4375 19.9219H22.6359C22.4805 19.3197 22.1297 18.786 21.6387 18.4043C21.1476 18.0226 20.5438 17.8145 19.9219 17.8125V16.4062H23.4375V19.9219Z" fill="url(#paint2_linear_488_1334)"/>
<defs>
<linearGradient id="paint0_linear_488_1334" x1="5.50164" y1="13.6551" x2="27.0495" y2="14.2976" gradientUnits="userSpaceOnUse">
<stop stop-color="#FF851D"/>
<stop offset="1" stop-color="#FFA456"/>
</linearGradient>
<linearGradient id="paint1_linear_488_1334" x1="5.50164" y1="13.6551" x2="27.0495" y2="14.2976" gradientUnits="userSpaceOnUse">
<stop stop-color="#FF851D"/>
<stop offset="1" stop-color="#FFA456"/>
</linearGradient>
<linearGradient id="paint2_linear_488_1334" x1="5.50164" y1="13.6551" x2="27.0495" y2="14.2976" gradientUnits="userSpaceOnUse">
<stop stop-color="#FF851D"/>
<stop offset="1" stop-color="#FFA456"/>
</linearGradient>
</defs>
</svg>
