<svg width="25" height="16" viewBox="0 0 25 16" fill="none" xmlns="http://www.w3.org/2000/svg">
<path d="M18.1454 0.209106V9.04547C19.2499 10.6409 22.0481 13.0955 24.4045 10.15V0.209106H18.1454Z" fill="#FE0000"/>
<path d="M9.30902 0.209106H0.472656C5.6272 5.73183 11.45 12.1046 16.3045 14.9364C19.2499 12.8746 18.759 10.15 18.1454 9.04547L9.30902 0.209106Z" fill="#FE0000"/>
<path d="M16.3045 14.9364C20.7227 17.5137 24.4045 13.4637 24.4045 10.15C22.0481 13.0955 19.2499 10.6409 18.1454 9.04547C18.759 10.15 19.2499 12.8746 16.3045 14.9364Z" fill="#AF0001"/>
<path d="M18.1454 9.04547L9.30902 0.209106H0.472656C5.6272 5.73183 11.45 12.1046 16.3045 14.9364M18.1454 9.04547V0.209106H24.4045V10.15M18.1454 9.04547C18.759 10.15 19.2499 12.8746 16.3045 14.9364M18.1454 9.04547C19.2499 10.6409 22.0481 13.0955 24.4045 10.15M24.4045 10.15C24.4045 13.4637 20.7227 17.5137 16.3045 14.9364" stroke="#FE0000" stroke-width="0.0736364"/>
</svg>
