<svg width="21" height="21" viewBox="0 0 21 21" fill="none" xmlns="http://www.w3.org/2000/svg">
<path d="M10.5 12.7357L2.6749 20.5608C2.38213 20.8536 2.00951 21 1.55703 21C1.10456 21 0.731939 20.8536 0.439163 20.5608C0.146387 20.2681 0 19.8954 0 19.443C0 18.9905 0.146387 18.6179 0.439163 18.3251L8.26426 10.5L0.439163 2.6749C0.146387 2.38213 0 2.00951 0 1.55703C0 1.10456 0.146387 0.731939 0.439163 0.439163C0.731939 0.146387 1.10456 0 1.55703 0C2.00951 0 2.38213 0.146387 2.6749 0.439163L10.5 8.26426L18.3251 0.439163C18.6179 0.146387 18.9905 0 19.443 0C19.8954 0 20.2681 0.146387 20.5608 0.439163C20.8536 0.731939 21 1.10456 21 1.55703C21 2.00951 20.8536 2.38213 20.5608 2.6749L12.7357 10.5L20.5608 18.3251C20.8536 18.6179 21 18.9905 21 19.443C21 19.8954 20.8536 20.2681 20.5608 20.5608C20.2681 20.8536 19.8954 21 19.443 21C18.9905 21 18.6179 20.8536 18.3251 20.5608L10.5 12.7357Z" fill="#1B1B1B"/>
</svg>
