<svg width="25" height="25" viewBox="0 0 25 25" fill="none" xmlns="http://www.w3.org/2000/svg">
<path d="M12.5 14.7357L4.6749 22.5608C4.38213 22.8536 4.00951 23 3.55703 23C3.10456 23 2.73194 22.8536 2.43916 22.5608C2.14639 22.2681 2 21.8954 2 21.443C2 20.9905 2.14639 20.6179 2.43916 20.3251L10.2643 12.5L2.43916 4.6749C2.14639 4.38213 2 4.00951 2 3.55703C2 3.10456 2.14639 2.73194 2.43916 2.43916C2.73194 2.14639 3.10456 2 3.55703 2C4.00951 2 4.38213 2.14639 4.6749 2.43916L12.5 10.2643L20.3251 2.43916C20.6179 2.14639 20.9905 2 21.443 2C21.8954 2 22.2681 2.14639 22.5608 2.43916C22.8536 2.73194 23 3.10456 23 3.55703C23 4.00951 22.8536 4.38213 22.5608 4.6749L14.7357 12.5L22.5608 20.3251C22.8536 20.6179 23 20.9905 23 21.443C23 21.8954 22.8536 22.2681 22.5608 22.5608C22.2681 22.8536 21.8954 23 21.443 23C20.9905 23 20.6179 22.8536 20.3251 22.5608L12.5 14.7357Z" fill="black"/>
</svg>
