<svg width="60" height="60" viewBox="0 0 60 60" fill="none" xmlns="http://www.w3.org/2000/svg">
<path d="M48.0108 13.7392C48.7918 12.9582 50.0582 12.9582 50.8392 13.7392L51.5108 14.4108C52.2918 15.1918 52.2918 16.4582 51.5108 17.2392L22.4892 46.2608C21.7082 47.0418 20.4418 47.0418 19.6608 46.2608L8.48921 35.0892C7.70816 34.3082 7.70816 33.0418 8.48921 32.2608L9.16079 31.5892C9.94184 30.8082 11.2082 30.8082 11.9892 31.5892L19.6608 39.2608C20.4418 40.0418 21.7082 40.0418 22.4892 39.2608L48.0108 13.7392ZM50.8392 6.66421C50.0582 5.88317 48.7918 5.88317 48.0108 6.66421L22.4892 32.1858C21.7082 32.9668 20.4418 32.9668 19.6608 32.1858L11.9892 24.5142C11.2082 23.7332 9.94183 23.7332 9.16079 24.5142L1.41421 32.2608C0.633164 33.0418 0.633165 34.3082 1.41421 35.0892L19.6608 53.3358C20.4418 54.1168 21.7082 54.1168 22.4892 53.3358L58.5858 17.2392C59.3668 16.4582 59.3668 15.1918 58.5858 14.4108L50.8392 6.66421Z" fill="url(#paint0_linear_801_10328)"/>
<defs>
<linearGradient id="paint0_linear_801_10328" x1="1.05263" y1="23.4869" x2="66.7279" y2="25.3478" gradientUnits="userSpaceOnUse">
<stop stop-color="#FF851D"/>
<stop offset="1" stop-color="#FFA456"/>
</linearGradient>
</defs>
</svg>
