<svg width="80" height="97" viewBox="0 0 80 97" fill="none" xmlns="http://www.w3.org/2000/svg">
<g style="mix-blend-mode:hard-light">
<path d="M63.986 7.92408e-05C64.7792 -0.00490925 65.5562 0.225738 66.2182 0.662762C66.8802 1.09979 67.3975 1.72352 67.7046 2.45487C68.0116 3.18622 68.0944 3.99223 67.9427 4.77076C67.791 5.5493 67.4116 6.26526 66.8524 6.82788C66.2933 7.3905 65.5796 7.77447 64.802 7.93106C64.0243 8.08764 63.2176 8.00982 62.4842 7.70745C61.7509 7.40508 61.1239 6.89175 60.6827 6.23261C60.2414 5.57347 60.0059 4.79817 60.0059 4.005C60.0058 2.94718 60.4244 1.93232 61.1701 1.18197C61.9158 0.431619 62.928 0.00673222 63.986 7.92408e-05Z" fill="white"/>
<path d="M63.986 29.697C64.7792 29.692 65.5562 29.9227 66.2182 30.3597C66.8802 30.7967 67.3975 31.4205 67.7046 32.1518C68.0116 32.8832 68.0944 33.6892 67.9427 34.4677C67.791 35.2463 67.4116 35.9622 66.8524 36.5248C66.2933 37.0875 65.5796 37.4714 64.802 37.628C64.0243 37.7846 63.2176 37.7067 62.4842 37.4044C61.7509 37.102 61.1239 36.5887 60.6827 35.9296C60.2414 35.2704 60.0059 34.4951 60.0059 33.702C60.0058 32.6441 60.4244 31.6293 61.1701 30.8789C61.9158 30.1285 62.928 29.7037 63.986 29.697Z" fill="white"/>
<path d="M63.986 59.3436C64.7792 59.3386 65.5562 59.5692 66.2182 60.0063C66.8802 60.4433 67.3975 61.067 67.7046 61.7984C68.0116 62.5297 68.0944 63.3358 67.9427 64.1143C67.791 64.8928 67.4116 65.6088 66.8524 66.1714C66.2933 66.734 65.5796 67.118 64.802 67.2746C64.0243 67.4311 63.2176 67.3533 62.4842 67.0509C61.7509 66.7486 61.1239 66.2353 60.6827 65.5761C60.2414 64.917 60.0059 64.1417 60.0059 63.3485C60.0058 62.2907 60.4244 61.2758 61.1701 60.5255C61.9158 59.7751 62.928 59.3502 63.986 59.3436Z" fill="white"/>
<path d="M63.986 88.9901C64.7792 88.9851 65.5562 89.2158 66.2182 89.6528C66.8802 90.0898 67.3975 90.7135 67.7046 91.4449C68.0116 92.1762 68.0944 92.9823 67.9427 93.7608C67.791 94.5394 67.4116 95.2553 66.8524 95.8179C66.2933 96.3806 65.5796 96.7645 64.802 96.9211C64.0243 97.0777 63.2176 96.9999 62.4842 96.6975C61.7509 96.3951 61.1239 95.8818 60.6827 95.2227C60.2414 94.5635 60.0059 93.7882 60.0059 92.9951C60.0058 91.9372 60.4244 90.9224 61.1701 90.172C61.9158 89.4217 62.928 88.9968 63.986 88.9901Z" fill="white"/>
<path d="M34.0084 7.62939e-05C34.8006 7.62939e-05 35.575 0.234952 36.2337 0.675019C36.8924 1.11509 37.4057 1.74059 37.7088 2.4724C38.012 3.2042 38.0914 4.00945 37.9369 4.78633C37.7823 5.56321 37.4008 6.27681 36.8406 6.83691C36.2804 7.39701 35.5668 7.77844 34.7898 7.93297C34.0128 8.08751 33.2075 8.00822 32.4756 7.7051C31.7437 7.40197 31.1182 6.88864 30.6781 6.23003C30.2379 5.57142 30.0029 4.7971 30.0029 4.005C30.0029 2.94282 30.4249 1.92416 31.1761 1.17309C31.9272 0.422018 32.9461 7.62939e-05 34.0084 7.62939e-05Z" fill="white"/>
<path d="M34.0084 29.697C34.8006 29.697 35.575 29.9319 36.2337 30.372C36.8924 30.8121 37.4057 31.4375 37.7088 32.1693C38.012 32.9011 38.0914 33.7064 37.9369 34.4833C37.7823 35.2602 37.4008 35.9738 36.8406 36.5339C36.2804 37.094 35.5668 37.4754 34.7898 37.6299C34.0128 37.7845 33.2075 37.7051 32.4756 37.402C31.7437 37.0989 31.1182 36.5856 30.6781 35.927C30.2379 35.2684 30.0029 34.4941 30.0029 33.702C30.0029 32.6398 30.4249 31.6211 31.1761 30.8701C31.9272 30.119 32.9461 29.697 34.0084 29.697Z" fill="white"/>
<path d="M34.0084 59.3436C34.8006 59.3436 35.575 59.5785 36.2337 60.0185C36.8924 60.4586 37.4057 61.0841 37.7088 61.8159C38.012 62.5477 38.0914 63.3529 37.9369 64.1298C37.7823 64.9067 37.4008 65.6203 36.8406 66.1804C36.2804 66.7405 35.5668 67.1219 34.7898 67.2765C34.0128 67.431 33.2075 67.3517 32.4756 67.0486C31.7437 66.7455 31.1182 66.2321 30.6781 65.5735C30.2379 64.9149 30.0029 64.1406 30.0029 63.3485C30.0029 62.2863 30.4249 61.2677 31.1761 60.5166C31.9272 59.7655 32.9461 59.3436 34.0084 59.3436Z" fill="white"/>
<path d="M34.0084 88.9902C34.8006 88.9902 35.575 89.225 36.2337 89.6651C36.8924 90.1052 37.4057 90.7307 37.7088 91.4625C38.012 92.1943 38.0914 92.9995 37.9369 93.7764C37.7823 94.5533 37.4008 95.2669 36.8406 95.827C36.2804 96.3871 35.5668 96.7685 34.7898 96.923C34.0128 97.0776 33.2075 96.9983 32.4756 96.6951C31.7437 96.392 31.1182 95.8787 30.6781 95.2201C30.2379 94.5615 30.0029 93.7872 30.0029 92.9951C30.0029 91.9329 30.4249 90.9142 31.1761 90.1632C31.9272 89.4121 32.9461 88.9902 34.0084 88.9902Z" fill="white"/>
<path d="M4.00533 3.05176e-05C4.79753 3.05176e-05 5.57195 0.234906 6.23063 0.674974C6.88932 1.11504 7.40276 1.74054 7.70592 2.47235C8.00908 3.20415 8.08833 4.0094 7.93378 4.78628C7.77923 5.56316 7.39783 6.27676 6.83766 6.83686C6.27749 7.39696 5.56384 7.7784 4.78687 7.93293C4.00989 8.08746 3.20444 8.00818 2.47254 7.70505C1.74065 7.40193 1.11511 6.88859 0.674987 6.22999C0.234866 5.57138 0 4.79705 0 4.00495C0 2.94278 0.421993 1.92411 1.17315 1.17304C1.92432 0.421972 2.94303 3.05176e-05 4.00533 3.05176e-05Z" fill="white"/>
<path d="M4.00533 29.697C4.79753 29.697 5.57195 29.9319 6.23063 30.372C6.88932 30.812 7.40276 31.4375 7.70592 32.1693C8.00908 32.9011 8.08833 33.7064 7.93378 34.4833C7.77923 35.2602 7.39783 35.9738 6.83766 36.5339C6.27749 37.094 5.56384 37.4754 4.78687 37.6299C4.00989 37.7845 3.20444 37.7051 2.47254 37.402C1.74065 37.0989 1.11511 36.5856 0.674987 35.927C0.234866 35.2683 0 34.4941 0 33.702C0 32.6398 0.421993 31.6211 1.17315 30.8701C1.92432 30.119 2.94303 29.697 4.00533 29.697Z" fill="white"/>
<path d="M4.00533 59.3436C4.79753 59.3436 5.57195 59.5785 6.23063 60.0185C6.88932 60.4586 7.40276 61.0841 7.70592 61.8159C8.00908 62.5477 8.08833 63.3529 7.93378 64.1298C7.77923 64.9067 7.39783 65.6203 6.83766 66.1804C6.27749 66.7405 5.56384 67.1219 4.78687 67.2765C4.00989 67.431 3.20444 67.3517 2.47254 67.0486C1.74065 66.7455 1.11511 66.2321 0.674987 65.5735C0.234866 64.9149 0 64.1406 0 63.3485C0 62.2863 0.421993 61.2677 1.17315 60.5166C1.92432 59.7655 2.94303 59.3436 4.00533 59.3436Z" fill="white"/>
<path d="M4.00533 88.9902C4.79753 88.9902 5.57195 89.225 6.23063 89.6651C6.88932 90.1052 7.40276 90.7307 7.70592 91.4625C8.00908 92.1943 8.08833 92.9995 7.93378 93.7764C7.77923 94.5533 7.39783 95.2669 6.83766 95.827C6.27749 96.3871 5.56384 96.7685 4.78687 96.923C4.00989 97.0776 3.20444 96.9983 2.47254 96.6951C1.74065 96.392 1.11511 95.8787 0.674987 95.2201C0.234866 94.5615 0 93.7872 0 92.9951C0 91.9329 0.421993 90.9142 1.17315 90.1632C1.92432 89.4121 2.94303 88.9902 4.00533 88.9902Z" fill="white"/>
</g>
</svg>
