<svg width="103" height="77" viewBox="0 0 103 77" fill="none" xmlns="http://www.w3.org/2000/svg">
<g style="mix-blend-mode:hard-light">
<path d="M98.0711 -1.52588e-05C98.8739 -1.52588e-05 99.6588 0.2387 100.326 0.685961C100.994 1.13322 101.514 1.76895 101.822 2.51272C102.129 3.25649 102.209 4.0749 102.052 4.86448C101.896 5.65406 101.509 6.37932 100.942 6.94858C100.374 7.51783 99.6504 7.90551 98.863 8.06256C98.0755 8.21962 97.2594 8.13904 96.5176 7.83096C95.7758 7.52288 95.1419 7.00116 94.6958 6.33178C94.2498 5.66241 94.0117 4.87542 94.0117 4.07038C94.0117 2.99084 94.4394 1.95552 95.2007 1.19217C95.962 0.428824 96.9944 -1.52588e-05 98.0711 -1.52588e-05Z" fill="white"/>
<path d="M98.0711 30.1824C98.8739 30.1824 99.6588 30.4211 100.326 30.8684C100.994 31.3156 101.514 31.9513 101.822 32.6951C102.129 33.4389 102.209 34.2573 102.052 35.0469C101.896 35.8365 101.509 36.5617 100.942 37.131C100.374 37.7003 99.6504 38.0879 98.863 38.245C98.0755 38.402 97.2594 38.3214 96.5176 38.0133C95.7758 37.7053 95.1419 37.1835 94.6958 36.5142C94.2498 35.8448 94.0117 35.0579 94.0117 34.2528C94.0117 33.1733 94.4394 32.1379 95.2007 31.3746C95.962 30.6113 96.9944 30.1824 98.0711 30.1824Z" fill="white"/>
<path d="M98.0711 60.3136C98.8739 60.3136 99.6588 60.5523 100.326 60.9996C100.994 61.4468 101.514 62.0825 101.822 62.8263C102.129 63.5701 102.209 64.3885 102.052 65.1781C101.896 65.9677 101.509 66.693 100.942 67.2622C100.374 67.8315 99.6504 68.2191 98.863 68.3762C98.0755 68.5332 97.2594 68.4526 96.5176 68.1446C95.7758 67.8365 95.1419 67.3148 94.6958 66.6454C94.2498 65.976 94.0117 65.189 94.0117 64.384C94.0117 63.3044 94.4394 62.2691 95.2007 61.5058C95.962 60.7424 96.9944 60.3136 98.0711 60.3136Z" fill="white"/>
<path d="M67.664 8.19197C69.906 8.19197 71.7233 6.3696 71.7233 4.12158C71.7233 1.87356 69.906 0.0511932 67.664 0.0511932C65.422 0.0511932 63.6045 1.87356 63.6045 4.12158C63.6045 6.3696 65.422 8.19197 67.664 8.19197Z" fill="white"/>
<path d="M67.6638 30.1824C68.4678 30.1773 69.2551 30.4117 69.926 30.8559C70.5969 31.3001 71.1212 31.934 71.4324 32.6773C71.7436 33.4206 71.8275 34.2398 71.6738 35.0311C71.52 35.8223 71.1355 36.55 70.5688 37.1218C70.0021 37.6937 69.2788 38.0839 68.4907 38.243C67.7025 38.4021 66.8851 38.323 66.1418 38.0157C65.3986 37.7084 64.763 37.1867 64.3158 36.5168C63.8686 35.8469 63.6299 35.0589 63.6299 34.2528C63.6299 33.1777 64.054 32.1462 64.8098 31.3836C65.5656 30.621 66.5916 30.1891 67.6638 30.1824Z" fill="white"/>
<path d="M67.6638 60.3136C68.4678 60.3085 69.2551 60.5429 69.926 60.9871C70.5969 61.4313 71.1212 62.0652 71.4324 62.8085C71.7436 63.5518 71.8275 64.371 71.6738 65.1623C71.52 65.9536 71.1355 66.6812 70.5688 67.253C70.0021 67.8249 69.2788 68.2151 68.4907 68.3742C67.7025 68.5334 66.8851 68.4543 66.1418 68.1469C65.3986 67.8396 64.763 67.318 64.3158 66.648C63.8686 65.9781 63.6299 65.1901 63.6299 64.384C63.6299 63.3089 64.054 62.2774 64.8098 61.5148C65.5656 60.7522 66.5916 60.3203 67.6638 60.3136Z" fill="white"/>
<path d="M37.282 -1.52588e-05C38.0849 -1.52588e-05 38.8697 0.2387 39.5373 0.685961C40.2049 1.13322 40.7252 1.76895 41.0325 2.51272C41.3397 3.25649 41.4201 4.0749 41.2634 4.86448C41.1068 5.65406 40.7202 6.37932 40.1525 6.94858C39.5848 7.51783 38.8614 7.90551 38.0739 8.06256C37.2865 8.21962 36.4703 8.13904 35.7285 7.83096C34.9868 7.52288 34.3528 7.00116 33.9067 6.33178C33.4607 5.66241 33.2227 4.87542 33.2227 4.07038C33.2227 2.99084 33.6503 1.95552 34.4116 1.19217C35.1729 0.428824 36.2054 -1.52588e-05 37.282 -1.52588e-05Z" fill="white"/>
<path d="M37.282 30.1824C38.0849 30.1824 38.8697 30.4211 39.5373 30.8684C40.2049 31.3156 40.7252 31.9513 41.0325 32.6951C41.3397 33.4389 41.4201 34.2573 41.2634 35.0469C41.1068 35.8365 40.7202 36.5617 40.1525 37.131C39.5848 37.7003 38.8614 38.0879 38.0739 38.245C37.2865 38.402 36.4703 38.3214 35.7285 38.0133C34.9868 37.7053 34.3528 37.1835 33.9067 36.5142C33.4607 35.8448 33.2227 35.0579 33.2227 34.2528C33.2227 33.1733 33.6503 32.1379 34.4116 31.3746C35.1729 30.6113 36.2054 30.1824 37.282 30.1824Z" fill="white"/>
<path d="M37.282 60.3136C38.0849 60.3136 38.8697 60.5523 39.5373 60.9996C40.2049 61.4468 40.7252 62.0825 41.0325 62.8263C41.3397 63.5701 41.4201 64.3885 41.2634 65.1781C41.1068 65.9677 40.7202 66.693 40.1525 67.2622C39.5848 67.8315 38.8614 68.2191 38.0739 68.3762C37.2865 68.5332 36.4703 68.4526 35.7285 68.1446C34.9868 67.8365 34.3528 67.3148 33.9067 66.6454C33.4607 65.976 33.2227 65.189 33.2227 64.384C33.2227 63.3044 33.6503 62.2691 34.4116 61.5058C35.1729 60.7424 36.2054 60.3136 37.282 60.3136Z" fill="white"/>
<path d="M6.87395 -1.52588e-05C7.67683 -1.52588e-05 8.46169 0.2387 9.12926 0.685961C9.79683 1.13322 10.317 1.76895 10.6243 2.51272C10.9315 3.25649 11.012 4.0749 10.8554 4.86448C10.6987 5.65406 10.312 6.37932 9.74432 6.94858C9.1766 7.51783 8.45332 7.90551 7.66587 8.06256C6.87842 8.21962 6.06226 8.13904 5.32049 7.83096C4.57873 7.52288 3.94475 7.00116 3.4987 6.33178C3.05264 5.66241 2.81445 4.87542 2.81445 4.07038C2.81445 2.99084 3.24214 1.95552 4.00343 1.19217C4.76472 0.428824 5.79732 -1.52588e-05 6.87395 -1.52588e-05Z" fill="white"/>
<path d="M6.87395 30.1824C7.67683 30.1824 8.46169 30.4211 9.12926 30.8684C9.79683 31.3156 10.317 31.9513 10.6243 32.6951C10.9315 33.4389 11.012 34.2573 10.8554 35.0469C10.6987 35.8365 10.312 36.5617 9.74432 37.131C9.1766 37.7003 8.45332 38.0879 7.66587 38.245C6.87842 38.402 6.06226 38.3214 5.32049 38.0133C4.57873 37.7053 3.94475 37.1835 3.4987 36.5142C3.05264 35.8448 2.81445 35.0579 2.81445 34.2528C2.81445 33.1733 3.24214 32.1379 4.00343 31.3746C4.76472 30.6113 5.79732 30.1824 6.87395 30.1824Z" fill="white"/>
<path d="M6.87395 60.3136C7.67683 60.3136 8.46169 60.5523 9.12926 60.9996C9.79683 61.4468 10.317 62.0825 10.6243 62.8263C10.9315 63.5701 11.012 64.3885 10.8554 65.1781C10.6987 65.9677 10.312 66.693 9.74432 67.2622C9.1766 67.8315 8.45332 68.2191 7.66587 68.3762C6.87842 68.5332 6.06226 68.4526 5.32049 68.1446C4.57873 67.8365 3.94475 67.3148 3.4987 66.6454C3.05264 65.976 2.81445 65.189 2.81445 64.384C2.81445 63.3044 3.24214 62.2691 4.00343 61.5058C4.76472 60.7424 5.79732 60.3136 6.87395 60.3136Z" fill="white"/>
</g>
</svg>
