<svg width="40" height="40" viewBox="0 0 40 40" fill="none" xmlns="http://www.w3.org/2000/svg">
<rect width="40" height="40" rx="20" fill="#E5E5E5"/>
<path d="M24.0004 13.4154V22.2769C25.1081 23.8769 27.9143 26.3385 30.2773 23.3846V13.4154H24.0004Z" fill="#FE0000"/>
<path d="M15.1389 13.4154H6.27734C11.4466 18.9539 17.286 25.3448 22.1543 28.1846C25.1081 26.1169 24.6158 23.3846 24.0004 22.2769L15.1389 13.4154Z" fill="#FE0000"/>
<path d="M22.1543 28.1846C26.585 30.7693 30.2773 26.7077 30.2773 23.3846C27.9143 26.3385 25.1081 23.8769 24.0004 22.2769C24.6158 23.3846 25.1081 26.1169 22.1543 28.1846Z" fill="#AF0001"/>
<path d="M24.0004 22.2769L15.1389 13.4154H6.27734C11.4466 18.9539 17.286 25.3448 22.1543 28.1846M24.0004 22.2769V13.4154H30.2773V23.3846M24.0004 22.2769C24.6158 23.3846 25.1081 26.1169 22.1543 28.1846M24.0004 22.2769C25.1081 23.8769 27.9143 26.3385 30.2773 23.3846M30.2773 23.3846C30.2773 26.7077 26.585 30.7693 22.1543 28.1846" stroke="#FE0000" stroke-width="0.0738462"/>
</svg>
