<svg width="40" height="40" viewBox="0 0 40 40" fill="none" xmlns="http://www.w3.org/2000/svg">
<rect width="40" height="40" rx="20" fill="#E5E5E5"/>
<path d="M19.9987 18.8334C21.5458 18.8334 23.0295 19.448 24.1235 20.5419C25.2175 21.6359 25.832 23.1196 25.832 24.6667V31.6667H14.1654V24.6667C14.1654 23.1196 14.7799 21.6359 15.8739 20.5419C16.9679 19.448 18.4516 18.8334 19.9987 18.8334ZM12.168 22.3404C11.9824 22.9666 11.8727 23.6129 11.8414 24.2654L11.832 24.6667V31.6667H8.33203V26.4167C8.3318 25.4105 8.70306 24.4397 9.37461 23.6905C10.0461 22.9412 10.9707 22.4662 11.9709 22.3567L12.1692 22.3404H12.168ZM27.8294 22.3404C28.8676 22.4037 29.8426 22.8607 30.5554 23.6181C31.2682 24.3756 31.6652 25.3766 31.6654 26.4167V31.6667H28.1654V24.6667C28.1654 23.8582 28.0487 23.0777 27.8294 22.3404ZM12.4154 15.3334C13.1889 15.3334 13.9308 15.6407 14.4778 16.1876C15.0247 16.7346 15.332 17.4765 15.332 18.25C15.332 19.0236 15.0247 19.7655 14.4778 20.3124C13.9308 20.8594 13.1889 21.1667 12.4154 21.1667C11.6418 21.1667 10.9 20.8594 10.353 20.3124C9.80599 19.7655 9.4987 19.0236 9.4987 18.25C9.4987 17.4765 9.80599 16.7346 10.353 16.1876C10.9 15.6407 11.6418 15.3334 12.4154 15.3334ZM27.582 15.3334C28.3556 15.3334 29.0974 15.6407 29.6444 16.1876C30.1914 16.7346 30.4987 17.4765 30.4987 18.25C30.4987 19.0236 30.1914 19.7655 29.6444 20.3124C29.0974 20.8594 28.3556 21.1667 27.582 21.1667C26.8085 21.1667 26.0666 20.8594 25.5196 20.3124C24.9727 19.7655 24.6654 19.0236 24.6654 18.25C24.6654 17.4765 24.9727 16.7346 25.5196 16.1876C26.0666 15.6407 26.8085 15.3334 27.582 15.3334ZM19.9987 8.33337C21.2364 8.33337 22.4234 8.82504 23.2985 9.70021C24.1737 10.5754 24.6654 11.7624 24.6654 13C24.6654 14.2377 24.1737 15.4247 23.2985 16.2999C22.4234 17.175 21.2364 17.6667 19.9987 17.6667C18.761 17.6667 17.574 17.175 16.6989 16.2999C15.8237 15.4247 15.332 14.2377 15.332 13C15.332 11.7624 15.8237 10.5754 16.6989 9.70021C17.574 8.82504 18.761 8.33337 19.9987 8.33337Z" fill="url(#paint0_linear_385_1172)"/>
<defs>
<linearGradient id="paint0_linear_385_1172" x1="8.74139" y1="16.9299" x2="34.2883" y2="17.5271" gradientUnits="userSpaceOnUse">
<stop stop-color="#FF851D"/>
<stop offset="1" stop-color="#FFA456"/>
</linearGradient>
</defs>
</svg>
