<svg width="40" height="40" viewBox="0 0 40 40" fill="none" xmlns="http://www.w3.org/2000/svg">
<rect width="40" height="40" rx="20" fill="#E5E5E5"/>
<path d="M33.05 20.5719L30.2375 14.0094C30.1657 13.8399 30.0457 13.6953 29.8923 13.5936C29.7389 13.492 29.559 13.4377 29.375 13.4375H26.5625V11.5625C26.5625 11.3139 26.4637 11.0754 26.2879 10.8996C26.1121 10.7238 25.8736 10.625 25.625 10.625H7.8125C7.56386 10.625 7.3254 10.7238 7.14959 10.8996C6.97377 11.0754 6.875 11.3139 6.875 11.5625V27.5C6.875 27.7486 6.97377 27.9871 7.14959 28.1629C7.3254 28.3387 7.56386 28.4375 7.8125 28.4375H9.81875C10.0346 29.2319 10.5059 29.9332 11.1599 30.4332C11.8139 30.9332 12.6143 31.2041 13.4375 31.2041C14.2607 31.2041 15.0611 30.9332 15.7151 30.4332C16.3691 29.9332 16.8404 29.2319 17.0562 28.4375H22.9437C23.1596 29.2319 23.6309 29.9332 24.2849 30.4332C24.9389 30.9332 25.7393 31.2041 26.5625 31.2041C27.3857 31.2041 28.1861 30.9332 28.8401 30.4332C29.4941 29.9332 29.9654 29.2319 30.1813 28.4375H32.1875C32.4361 28.4375 32.6746 28.3387 32.8504 28.1629C33.0262 27.9871 33.125 27.7486 33.125 27.5V20.9375C33.1248 20.8118 33.0993 20.6875 33.05 20.5719ZM26.5625 15.3125H28.7563L30.7625 20H26.5625V15.3125ZM13.4375 29.375C13.0667 29.375 12.7041 29.265 12.3958 29.059C12.0875 28.853 11.8471 28.5601 11.7052 28.2175C11.5633 27.8749 11.5262 27.4979 11.5985 27.1342C11.6709 26.7705 11.8495 26.4364 12.1117 26.1742C12.3739 25.912 12.708 25.7334 13.0717 25.661C13.4354 25.5887 13.8124 25.6258 14.155 25.7677C14.4976 25.9096 14.7905 26.15 14.9965 26.4583C15.2025 26.7666 15.3125 27.1292 15.3125 27.5C15.3125 27.9973 15.115 28.4742 14.7633 28.8258C14.4117 29.1775 13.9348 29.375 13.4375 29.375ZM22.9437 26.5625H17.0562C16.8404 25.7681 16.3691 25.0668 15.7151 24.5668C15.0611 24.0668 14.2607 23.7959 13.4375 23.7959C12.6143 23.7959 11.8139 24.0668 11.1599 24.5668C10.5059 25.0668 10.0346 25.7681 9.81875 26.5625H8.75V12.5H24.6875V24.275C24.2606 24.5228 23.8868 24.8524 23.5876 25.2449C23.2884 25.6375 23.0696 26.0852 22.9437 26.5625ZM26.5625 29.375C26.1917 29.375 25.8291 29.265 25.5208 29.059C25.2125 28.853 24.9721 28.5601 24.8302 28.2175C24.6883 27.8749 24.6512 27.4979 24.7235 27.1342C24.7959 26.7705 24.9745 26.4364 25.2367 26.1742C25.4989 25.912 25.833 25.7334 26.1967 25.661C26.5604 25.5887 26.9374 25.6258 27.28 25.7677C27.6226 25.9096 27.9155 26.15 28.1215 26.4583C28.3275 26.7666 28.4375 27.1292 28.4375 27.5C28.4375 27.9973 28.24 28.4742 27.8883 28.8258C27.5367 29.1775 27.0598 29.375 26.5625 29.375ZM31.25 26.5625H30.1813C29.9739 25.7596 29.5063 25.048 28.8515 24.5391C28.1968 24.0302 27.3918 23.7527 26.5625 23.75V21.875H31.25V26.5625Z" fill="url(#paint0_linear_385_1169)"/>
<path d="M22.9437 26.5625H17.0562C16.8404 25.7681 16.3691 25.0668 15.7151 24.5668C15.0611 24.0668 14.2607 23.7959 13.4375 23.7959C12.6143 23.7959 11.8139 24.0668 11.1599 24.5668C10.5059 25.0668 10.0346 25.7681 9.81875 26.5625H8.75V12.5H24.6875V24.275C24.2606 24.5228 23.8868 24.8524 23.5876 25.2449C23.2884 25.6375 23.0696 26.0852 22.9437 26.5625Z" fill="url(#paint1_linear_385_1169)"/>
<path d="M31.25 26.5625H30.1813C29.9739 25.7596 29.5063 25.048 28.8515 24.5391C28.1968 24.0302 27.3918 23.7527 26.5625 23.75V21.875H31.25V26.5625Z" fill="url(#paint2_linear_385_1169)"/>
<defs>
<linearGradient id="paint0_linear_385_1169" x1="7.33553" y1="18.2068" x2="36.066" y2="19.0635" gradientUnits="userSpaceOnUse">
<stop stop-color="#FF851D"/>
<stop offset="1" stop-color="#FFA456"/>
</linearGradient>
<linearGradient id="paint1_linear_385_1169" x1="7.33553" y1="18.2068" x2="36.066" y2="19.0635" gradientUnits="userSpaceOnUse">
<stop stop-color="#FF851D"/>
<stop offset="1" stop-color="#FFA456"/>
</linearGradient>
<linearGradient id="paint2_linear_385_1169" x1="7.33553" y1="18.2068" x2="36.066" y2="19.0635" gradientUnits="userSpaceOnUse">
<stop stop-color="#FF851D"/>
<stop offset="1" stop-color="#FFA456"/>
</linearGradient>
</defs>
</svg>
