<svg width="30" height="30" viewBox="0 0 30 30" fill="none" xmlns="http://www.w3.org/2000/svg">
<g clip-path="url(#clip0_671_350)">
<path d="M29.8497 14.9999C29.8497 23.2005 23.2009 29.8499 15.0009 29.8499C6.79719 29.8499 0.148438 23.2005 0.148438 14.9999C0.148438 6.7974 6.79719 0.149902 15.0009 0.149902C23.2009 0.149902 29.8497 6.7974 29.8497 14.9999ZM12.5197 24.2812H16.3741V15.0062H18.9759L19.3128 11.7299H16.3741V9.80303C16.3741 9.08053 16.8547 8.91115 17.1916 8.91115H19.2653V5.7299L16.4103 5.71865C13.2403 5.71865 12.5197 8.09115 12.5197 9.60865V11.7299H10.6866V15.0062H12.5197V24.2812Z" fill="#F2F2F2"/>
</g>
<defs>
<clipPath id="clip0_671_350">
<rect width="30" height="30" fill="white"/>
</clipPath>
</defs>
</svg>
