<svg width="30" height="30" viewBox="0 0 30 30" fill="none" xmlns="http://www.w3.org/2000/svg">
<g clip-path="url(#clip0_671_346)">
<path d="M15.0006 11.0142C12.8016 11.0142 11.0156 12.7972 11.0156 15.0002C11.0156 17.2022 12.8026 18.9872 15.0006 18.9872C17.1996 18.9872 18.9876 17.2022 18.9876 15.0002C18.9876 12.7972 17.1996 11.0142 15.0006 11.0142ZM15.0006 17.6062C13.5566 17.6062 12.3936 16.4392 12.3936 15.0002C12.3936 13.5612 13.5566 12.3942 15.0006 12.3942C16.4296 12.3942 17.6076 13.5612 17.6076 15.0002C17.6076 16.4392 16.4446 17.6062 15.0006 17.6062Z" fill="#F2F2F2"/>
<path d="M19.3848 9.55566C18.8718 9.55566 18.4648 9.96366 18.4648 10.4767C18.4648 10.9887 18.8718 11.3957 19.3848 11.3957C19.8978 11.3957 20.3058 10.9887 20.3058 10.4767C20.3058 9.96366 19.8968 9.55566 19.3848 9.55566Z" fill="#F2F2F2"/>
<path d="M15.0014 0.150391C6.79744 0.150391 0.148438 6.79739 0.148438 15.0004C0.148438 23.2014 6.79744 29.8504 15.0014 29.8504C23.2004 29.8504 29.8514 23.2024 29.8514 15.0004C29.8514 6.79739 23.2004 0.150391 15.0014 0.150391ZM22.6654 18.2654C22.6654 20.6884 20.6864 22.6664 18.2494 22.6664H11.7494C9.31144 22.6664 7.33244 20.6874 7.33244 18.2804V11.7344C7.33244 9.31239 9.31044 7.33439 11.7494 7.33439H18.2494C20.6874 7.33439 22.6654 9.31239 22.6654 11.7344V18.2654Z" fill="#F2F2F2"/>
</g>
<defs>
<clipPath id="clip0_671_346">
<rect width="30" height="30" fill="white"/>
</clipPath>
</defs>
</svg>
