<svg width="54" height="25" viewBox="0 0 54 25" fill="none" xmlns="http://www.w3.org/2000/svg">
<path d="M1.994 18.5V5.9H7.448C8.576 5.9 9.548 6.086 10.364 6.458C11.18 6.818 11.81 7.34 12.254 8.024C12.698 8.708 12.92 9.524 12.92 10.472C12.92 11.408 12.698 12.218 12.254 12.902C11.81 13.574 11.18 14.09 10.364 14.45C9.548 14.81 8.576 14.99 7.448 14.99H3.614L4.91 13.712V18.5H1.994ZM10.004 18.5L6.854 13.928H9.968L13.154 18.5H10.004ZM4.91 14.036L3.614 12.668H7.286C8.186 12.668 8.858 12.476 9.302 12.092C9.746 11.696 9.968 11.156 9.968 10.472C9.968 9.776 9.746 9.236 9.302 8.852C8.858 8.468 8.186 8.276 7.286 8.276H3.614L4.91 6.89V14.036ZM20.8283 18.716C19.0403 18.716 17.6423 18.218 16.6343 17.222C15.6263 16.226 15.1223 14.804 15.1223 12.956V5.9H18.0383V12.848C18.0383 14.048 18.2843 14.912 18.7763 15.44C19.2683 15.968 19.9583 16.232 20.8463 16.232C21.7343 16.232 22.4243 15.968 22.9163 15.44C23.4083 14.912 23.6543 14.048 23.6543 12.848V5.9H26.5343V12.956C26.5343 14.804 26.0303 16.226 25.0223 17.222C24.0143 18.218 22.6163 18.716 20.8283 18.716Z" fill="white"/>
<path d="M41.0003 15.625L35.792 10.4167H46.2087L41.0003 15.625Z" fill="white"/>
</svg>
