<svg width="25" height="25" viewBox="0 0 25 25" fill="none" xmlns="http://www.w3.org/2000/svg">
<path d="M12.5098 1.5625C10.2314 1.56508 8.047 2.47133 6.43592 4.08241C4.82484 5.69349 3.9186 7.87784 3.91602 10.1562C3.91602 17.5098 11.7285 23.0664 12.0605 23.3008C12.1936 23.3894 12.3499 23.4367 12.5098 23.4367C12.6696 23.4367 12.8259 23.3894 12.959 23.3008C13.291 23.0664 21.1035 17.5098 21.1035 10.1562C21.1009 7.87784 20.1947 5.69349 18.5836 4.08241C16.9725 2.47133 14.7882 1.56508 12.5098 1.5625ZM12.5098 7.03125C13.1278 7.03125 13.732 7.21453 14.2459 7.55791C14.7598 7.90129 15.1604 8.38934 15.3969 8.96036C15.6334 9.53138 15.6953 10.1597 15.5747 10.7659C15.4541 11.3721 15.1565 11.9289 14.7195 12.366C14.2824 12.803 13.7256 13.1006 13.1194 13.2212C12.5132 13.3418 11.8849 13.2799 11.3139 13.0434C10.7429 12.8069 10.2548 12.4063 9.91142 11.8924C9.56804 11.3785 9.38477 10.7743 9.38477 10.1562C9.38477 9.32745 9.71401 8.53259 10.3001 7.94654C10.8861 7.36049 11.681 7.03125 12.5098 7.03125Z" fill="url(#paint0_linear_243_2005)"/>
<defs>
<linearGradient id="paint0_linear_243_2005" x1="4.21755" y1="9.6214" x2="23.0395" y2="9.96713" gradientUnits="userSpaceOnUse">
<stop stop-color="#FF851D"/>
<stop offset="1" stop-color="#FFA456"/>
</linearGradient>
</defs>
</svg>
