<svg width="30" height="30" viewBox="0 0 30 30" fill="none" xmlns="http://www.w3.org/2000/svg">
<g clip-path="url(#clip0_671_343)">
<path d="M15 0C6.7 0 0 6.7 0 15C0 23.3 6.7 30 15 30C23.3 30 30 23.3 30 15C30 6.7 23.3 0 15 0ZM23.45 6.95L20.1 22.7C20.05 23 19.7 23.15 19.4 23L14.25 19.55L11.5 22.15C11.25 22.35 10.9 22.25 10.8 21.95L9 16.35L4.25 14.4C3.9 14.25 3.9 13.65 4.25 13.5L22.8 6.45C23.15 6.35 23.5 6.6 23.45 6.95Z" fill="#F2F2F2"/>
<path d="M11.3492 20.3L11.6492 17.4L20.0492 9.25L9.94922 15.9" fill="#F2F2F2"/>
</g>
<defs>
<clipPath id="clip0_671_343">
<rect width="30" height="30" fill="white"/>
</clipPath>
</defs>
</svg>
