<svg width="25" height="25" viewBox="0 0 25 25" fill="none" xmlns="http://www.w3.org/2000/svg">
<path d="M15.8825 16.7813L17.6325 15.0313C17.8682 14.7985 18.1664 14.6392 18.4909 14.5726C18.8154 14.506 19.1523 14.5351 19.4606 14.6563L21.5934 15.5078C21.905 15.6343 22.1721 15.8502 22.3612 16.1282C22.5503 16.4063 22.6528 16.7341 22.6559 17.0703V20.9766C22.6541 21.2053 22.606 21.4313 22.5146 21.641C22.4231 21.8507 22.2902 22.0396 22.1237 22.1966C21.9573 22.3535 21.7609 22.4751 21.5462 22.5541C21.3315 22.6331 21.1031 22.6679 20.8747 22.6563C5.92935 21.7266 2.91372 9.07034 2.34341 4.22659C2.31694 3.98873 2.34113 3.74796 2.41439 3.52012C2.48765 3.29228 2.60832 3.08253 2.76846 2.90467C2.92861 2.72681 3.1246 2.58488 3.34354 2.48821C3.56247 2.39153 3.7994 2.34231 4.03872 2.34378H7.81216C8.14889 2.34478 8.47762 2.44649 8.75606 2.63584C9.03451 2.82518 9.24995 3.0935 9.37466 3.40628L10.2262 5.53909C10.3514 5.84618 10.3834 6.18335 10.3181 6.50848C10.2528 6.83361 10.0931 7.13229 9.85904 7.36722L8.10904 9.11722C8.10904 9.11722 9.11685 15.9375 15.8825 16.7813Z" fill="url(#paint0_linear_242_1988)"/>
<defs>
<linearGradient id="paint0_linear_242_1988" x1="2.68955" y1="9.82812" x2="24.9404" y2="10.3485" gradientUnits="userSpaceOnUse">
<stop stop-color="#FF851D"/>
<stop offset="1" stop-color="#FFA456"/>
</linearGradient>
</defs>
</svg>
